<?xml version="1.0" encoding="UTF-8"?>
<!-- Generator: Adobe Illustrator 26.2.1, SVG Export Plug-In . SVG Version: 6.00 Build 0)  -->
<svg xmlns="http://www.w3.org/2000/svg" xmlns:xlink="http://www.w3.org/1999/xlink" version="1.1" id="Layer_1" x="0px" y="0px" viewBox="0 0 512 512" style="enable-background:new 0 0 512 512;" xml:space="preserve">
<g>
	<g>
		<g>
			<path style="fill:#FFFFFF;" d="M22.306,249.757c0,0-2.335-17.728,14.729-11.992s11.504,21.968,4.998,16.413     c-6.506-5.554,5.701-24.393,18.759-16.004c13.058,8.388,10.137,24.665,0.875,25.866c-9.262,1.201,5.607-18.952,17.275-6.506     c11.668,12.446-13.807,35.138-24.225,26.795s-2.265-21.809,0.234-13.602s-4.24,16.254-22.718,15.936     c-18.478-0.318-10.067-28.746-3.608-20.471c6.459,8.275-4.264,17.614-17.298,7.866C-1.709,264.311,13.16,244.158,22.306,249.757z     "/>
		</g>
		<g>
			<path style="fill:#241726;" d="M33.278,287.858l-1.067-0.009c-6.057-0.104-10.319-3.208-11.821-8.554     c-3.186-0.404-6.547-1.874-9.772-4.288c-5.108-3.821-6.838-9.62-4.746-15.909c2.546-7.159,8.842-12.751,15.141-11.194     c-0.022-2.466,0.358-6.666,2.86-9.518c2.797-3.187,7.399-3.809,13.539-1.743c2.368,0.795,4.442,1.828,6.183,3.079     c4.931-5.222,11.916-6.447,17.836-2.545c5.644,3.626,9.07,9.201,9.35,15.104c3.312,0.095,6.346,1.588,9.023,4.445     c3.632,3.874,4.303,9.081,1.885,14.658c-4.622,9.996-18.242,20.37-27.713,13.87c-0.815-0.654-1.552-1.359-2.202-2.108     C47.696,286.233,41.338,287.858,33.278,287.858z M22.899,279.387c1.055,2.986,3.559,5.996,9.354,6.095l1.025,0.009     c9.294,0,14.369-2.18,17.094-4.251c-2.601-4.209-2.401-8.811-0.955-11.661c1.777-3.324,5.072-3.972,6.666,0.804     c1.25,4.11,0.322,8.127-2.544,11.184c0.562,0.652,1.203,1.267,1.916,1.837c8.045,5.27,20.148-4.42,24.062-12.962     c1.428-3.296,2.337-8.069-1.44-12.1c-2.225-2.374-4.698-3.615-7.355-3.696c-0.557,5.667-4.105,9.943-8.904,10.565     c-0.326,0.042-0.628,0.06-0.905,0.06c-2.371,0.002-3.275-1.449-3.329-2.804c-0.134-3.34,4.678-8.952,10.835-10.017     c-0.224-5.159-3.258-10.066-8.268-13.283c-4.925-3.167-10.575-2.228-14.728,2.064c4.032,3.837,4.781,8.556,3.656,11.707     c-1.255,3.511-4.907,4.625-7.817,2.136c-3.591-3.065-2.429-9.051,0.814-13.528c-1.521-1.07-3.339-1.962-5.42-2.663     c-5.152-1.729-8.847-1.396-11.001,1.054c-2.954,3.361-2.187,9.604-2.178,9.666c0.059,0.451-0.147,0.897-0.529,1.144     c-0.384,0.247-0.874,0.254-1.262,0.018c-5.446-2.83-11.267,2.779-13.57,9.079c-0.829,2.487-2.103,8.762,3.917,13.265     c2.631,1.967,5.325,3.234,7.877,3.712c-0.525-4.59,0.881-9.065,2.732-11.365c2.193-2.449,4.421-2.886,6.913,0.007     c2.295,2.94,2.816,6.254,1.431,9.095C29.619,277.365,26.56,279.172,22.899,279.387z M52.749,269.356     c-0.217,0-0.742,0.354-1.222,1.297c-1.059,2.085-1.233,5.623,0.616,8.931c2.036-2.39,2.634-5.362,1.675-8.51     C53.438,269.823,52.961,269.356,52.749,269.356z M26.129,265.868c-0.499,0-1.083,0.381-1.642,1.077     c-1.577,1.958-2.734,6.143-2.159,10.094c2.999-0.046,5.492-1.384,6.532-3.516c0.974-1.995,0.548-4.401-1.168-6.601     C27.316,266.441,26.74,265.868,26.129,265.868z M68.314,254.885c-4.962,1.102-8.437,5.658-8.365,7.489     c0.008,0.227,0.024,0.535,0.966,0.534c0.184,0,0.384-0.014,0.599-0.042C65.066,262.406,67.729,259.207,68.314,254.885z      M43.905,243.055c-2.798,3.897-3.334,8.318-1.104,10.223c1.681,1.438,3.319,0.913,4.051-1.133     C47.704,249.761,47.071,246.136,43.905,243.055z"/>
		</g>
	</g>
	<g>
		<g>
			<path style="fill:#FFFFFF;" d="M390.802,282.669c0,0-2.335-17.728,14.729-11.992c17.064,5.736,11.504,21.967,4.998,16.413     c-6.505-5.554,5.701-24.393,18.759-16.004c13.058,8.388,10.137,24.665,0.875,25.866c-9.262,1.201,5.607-18.952,17.275-6.506     c11.668,12.446-13.807,35.138-24.225,26.795s-2.265-21.809,0.234-13.602c2.499,8.207-4.24,16.254-22.718,15.936     c-18.478-0.318-10.067-28.746-3.608-20.471c6.459,8.275-4.264,17.614-17.298,7.866     C366.787,297.223,381.656,277.07,390.802,282.669z"/>
		</g>
		<g>
			<path style="fill:#241726;" d="M401.782,320.769l-1.075-0.009c-6.057-0.104-10.32-3.208-11.821-8.554     c-3.187-0.404-6.547-1.874-9.772-4.287c-5.108-3.818-6.838-9.617-4.746-15.906c2.544-7.161,8.842-12.753,15.141-11.196     c-0.022-2.466,0.358-6.666,2.86-9.518c2.797-3.19,7.397-3.807,13.539-1.74c2.368,0.795,4.442,1.828,6.183,3.079     c4.931-5.223,11.917-6.446,17.838-2.545c5.643,3.626,9.068,9.199,9.349,15.102c3.312,0.095,6.346,1.588,9.023,4.445     c3.632,3.874,4.301,9.079,1.886,14.658c-3.675,8.483-13.711,15.927-21.478,15.927c-2.431,0.001-4.53-0.691-6.236-2.057     c-0.815-0.652-1.551-1.359-2.2-2.108C416.194,319.144,409.839,320.769,401.782,320.769z M391.395,312.298     c1.055,2.986,3.559,5.996,9.354,6.095l1.033,0.009c9.289,0,14.363-2.18,17.086-4.248c-2.601-4.209-2.403-8.808-0.955-11.661     c1.776-3.323,5.072-3.972,6.665,0.802c1.252,4.11,0.324,8.129-2.541,11.184c0.56,0.652,1.202,1.267,1.915,1.837     c8.047,5.271,20.149-4.421,24.062-12.962c1.428-3.296,2.337-8.071-1.44-12.1c-2.225-2.374-4.698-3.615-7.355-3.696     c-0.557,5.667-4.104,9.943-8.904,10.567c-0.325,0.042-0.627,0.06-0.904,0.06c-2.371,0.002-3.275-1.447-3.329-2.804     c-0.135-3.34,4.677-8.952,10.834-10.017c-0.224-5.159-3.258-10.066-8.268-13.283c-4.927-3.164-10.575-2.228-14.729,2.062     c4.032,3.839,4.782,8.556,3.656,11.707c-0.784,2.198-2.465,3.562-4.386,3.564h-0.001c-7.073-0.793-6.834-9.555-2.616-14.954     c-1.521-1.07-3.338-1.962-5.419-2.663c-5.161-1.731-8.853-1.398-11.006,1.059c-2.96,3.377-2.181,9.594-2.173,9.657     c0.06,0.453-0.146,0.899-0.528,1.146c-0.383,0.25-0.875,0.254-1.263,0.018c-5.447-2.83-11.267,2.779-13.571,9.079     c-0.827,2.489-2.102,8.762,3.918,13.265c2.631,1.967,5.324,3.234,7.877,3.712c-0.525-4.59,0.879-9.065,2.732-11.365     c2.193-2.449,4.421-2.886,6.913,0.007c2.295,2.94,2.816,6.254,1.43,9.095C398.115,310.275,395.056,312.083,391.395,312.298z      M421.246,302.269c-0.217,0-0.742,0.351-1.222,1.297c-1.06,2.085-1.233,5.623,0.616,8.929c2.036-2.388,2.633-5.362,1.673-8.51     C421.933,302.734,421.457,302.269,421.246,302.269z M394.625,298.779c-0.499,0-1.083,0.381-1.642,1.077     c-1.577,1.958-2.734,6.143-2.159,10.094c2.999-0.046,5.492-1.384,6.532-3.516c0.974-1.997,0.548-4.403-1.168-6.601     C395.812,299.352,395.236,298.779,394.625,298.779z M436.81,287.796c-4.962,1.105-8.437,5.66-8.363,7.493     c0.009,0.224,0.022,0.534,0.965,0.532c0.184,0,0.384-0.014,0.599-0.042C433.561,295.319,436.225,292.118,436.81,287.796z      M412.4,275.969c-2.797,3.897-3.332,8.318-1.103,10.223c1.681,1.435,3.32,0.911,4.049-1.135     C416.199,282.674,415.567,279.05,412.4,275.969z"/>
		</g>
	</g>
	<g>
		<g>
			<path style="fill:#FFFFFF;" d="M150.292,473.9c0,0-2.335-17.728,14.729-11.992c17.064,5.736,11.504,21.967,4.998,16.413     c-6.506-5.554,5.701-24.393,18.759-16.004s10.137,24.665,0.875,25.866c-9.262,1.201,5.607-18.952,17.275-6.506     s-13.807,35.138-24.225,26.795c-10.418-8.343-2.265-21.809,0.234-13.602c2.499,8.207-4.24,16.254-22.718,15.936     s-10.067-28.746-3.608-20.471c6.459,8.275-4.264,17.614-17.298,7.866C126.278,488.453,141.147,468.3,150.292,473.9z"/>
		</g>
		<g>
			<path style="fill:#241726;" d="M161.267,512l-1.068-0.009c-6.057-0.104-10.32-3.208-11.822-8.554     c-3.186-0.404-6.547-1.874-9.772-4.288c-5.108-3.821-6.838-9.62-4.746-15.909c2.546-7.159,8.842-12.751,15.141-11.194     c-0.022-2.466,0.358-6.666,2.86-9.518c2.797-3.19,7.399-3.809,13.539-1.743c2.368,0.795,4.442,1.828,6.184,3.079     c4.929-5.222,11.915-6.447,17.835-2.545c5.644,3.626,9.07,9.201,9.35,15.104c3.312,0.095,6.346,1.588,9.023,4.445     c3.632,3.874,4.303,9.081,1.886,14.658c-4.622,9.996-18.243,20.37-27.714,13.87c-0.815-0.654-1.552-1.359-2.2-2.108     C175.683,510.375,169.326,512,161.267,512z M150.886,503.529c1.054,2.986,3.559,5.996,9.354,6.095l1.026,0.009     c9.293,0,14.368-2.18,17.092-4.25c-2.601-4.209-2.401-8.811-0.953-11.661c1.775-3.325,5.071-3.972,6.665,0.804     c1.25,4.11,0.322,8.129-2.542,11.184c0.561,0.652,1.202,1.267,1.915,1.837c8.045,5.27,20.149-4.42,24.063-12.962     c1.427-3.296,2.337-8.071-1.441-12.1c-2.225-2.374-4.698-3.615-7.355-3.696c-0.557,5.667-4.104,9.943-8.904,10.567     c-2.323,0.486-4.361-1.065-4.234-2.746c-0.134-3.34,4.678-8.952,10.835-10.015c-0.224-5.159-3.258-10.068-8.269-13.285     c-4.922-3.164-10.572-2.226-14.727,2.064c4.032,3.837,4.782,8.556,3.657,11.707c-1.255,3.518-4.908,4.623-7.817,2.138     c-3.591-3.065-2.429-9.051,0.814-13.53c-1.521-1.068-3.339-1.962-5.42-2.663c-5.152-1.729-8.847-1.394-11.001,1.054     c-2.954,3.361-2.187,9.603-2.178,9.666c0.059,0.451-0.147,0.897-0.529,1.144c-0.385,0.247-0.875,0.257-1.262,0.018     c-5.446-2.83-11.267,2.779-13.57,9.079c-0.829,2.487-2.103,8.762,3.917,13.265c2.631,1.967,5.325,3.234,7.877,3.712     c-0.525-4.59,0.881-9.065,2.732-11.365c2.193-2.449,4.421-2.886,6.913,0.007c2.295,2.94,2.816,6.254,1.431,9.095     C157.605,501.507,154.548,503.314,150.886,503.529z M180.736,493.498c-0.217,0-0.742,0.354-1.22,1.297     c-1.06,2.085-1.234,5.623,0.615,8.931c2.036-2.388,2.633-5.362,1.675-8.51C181.425,493.965,180.947,493.498,180.736,493.498z      M154.115,490.01c-0.499,0-1.083,0.381-1.642,1.077c-1.577,1.958-2.734,6.143-2.158,10.094c2.998-0.046,5.491-1.384,6.531-3.516     c0.974-1.995,0.548-4.401-1.168-6.601C155.302,490.583,154.727,490.01,154.115,490.01z M196.3,479.027     c-4.962,1.103-8.437,5.658-8.363,7.491c0.008,0.227,0.024,0.535,0.966,0.534c0.184,0,0.383-0.014,0.597-0.042     C193.052,486.55,195.716,483.349,196.3,479.027z M171.892,467.197c-2.798,3.899-3.334,8.321-1.104,10.225     c1.679,1.431,3.32,0.911,4.051-1.135C175.69,473.903,175.058,470.278,171.892,467.197z"/>
		</g>
	</g>
	<g>
		<path style="fill:#241726;" d="M34.924,361.147c-0.456,0-0.995-0.349-1.191-0.763c-0.491-1.031-1.798-7.736-2.593-12.079    c-9.368-1.9-10.579-3.009-11.001-3.985c-0.211-0.49-0.171-1.031,0.113-1.486c0.855-1.366,5.189-4.006,8.953-6.123    c-1.575-10.653-0.965-11.36-0.517-11.882c0.555-0.54,1.258-0.686,1.97-0.116c1.274,1.07,4.517,3.853,8.063,7.038    c4.015-1.925,8.94-4.054,11.1-4.054c0.699,0,1.233,0.208,1.587,0.617c0.306,0.354,0.436,0.823,0.365,1.32    c-0.243,1.68-2.636,6.911-4.274,10.35c7.804,7.759,8.575,10.204,7.258,11.594c-0.26,0.275-0.641,0.404-1.01,0.361    c-0.054-0.007-5.244-0.68-11.413-1.655C36.613,361.147,35.717,361.147,34.924,361.147z M33.635,348.793    c0.762,4.114,1.38,7.1,1.782,8.845c0.87-1.306,2.302-3.71,4.45-7.752C37.61,349.515,35.524,349.149,33.635,348.793z     M43.489,348.07c3.837,0.599,7.207,1.07,9.057,1.32c-0.579-1.022-2.111-3.095-6.135-7.144    C45.465,344.185,44.475,346.156,43.489,348.07z M33.18,346.297c2.307,0.444,4.939,0.908,7.847,1.38    c1.218-2.346,2.45-4.803,3.606-7.19c-1.839-1.791-3.957-3.774-6.312-5.908c-2.153,1.061-4.385,2.224-6.531,3.402    C32.207,340.688,32.692,343.558,33.18,346.297z M22.767,343.593c0.827,0.402,2.879,1.142,7.921,2.203    c-0.384-2.18-0.76-4.422-1.101-6.58C25.863,341.344,23.698,342.819,22.767,343.593z M40.621,333.469    c1.857,1.694,3.562,3.289,5.091,4.766c1.965-4.163,3.039-6.763,3.483-8.08C47.758,330.43,44.999,331.41,40.621,333.469z     M30.563,327.742c0.055,1.297,0.262,3.617,0.855,7.745c1.656-0.897,3.349-1.782,5.011-2.612    C33.994,330.701,31.879,328.87,30.563,327.742z"/>
	</g>
	<g>
		<path style="fill:#241726;" d="M360.797,56.516c-0.081,0-0.284-0.021-0.364-0.037c-0.37-0.076-0.681-0.326-0.837-0.67    c-0.023-0.051-2.176-4.819-4.588-10.581c-3.506,0.238-6.458,0.365-8.577,0.365c-3.474,0-4.2-0.303-4.594-1.026    c-0.207-0.379-0.177-0.987,0.058-1.35c0.618-0.959,5.638-5.596,8.915-8.554c-3.302-8.961-2.997-10.574-2.393-11.446    c0.304-0.437,0.784-0.689,1.316-0.689c1.62,0.009,6.146,2.309,9.925,4.398c8.551-6.945,8.972-7.331,10.66-6.231    c0.155,0.178,0.401,0.569,0.313,1.165c-0.242,1.643-0.904,5.864-1.751,10.558c9.837,6.308,9.716,7.872,9.657,8.633    c-0.046,0.599-0.421,1.107-1.001,1.361c-1.557,0.675-7.263,1.387-11.05,1.801C363.838,55.55,362.224,56.516,360.797,56.516z     M357.498,45.048c1.507,3.578,2.876,6.694,3.635,8.402c0.565-1.031,1.525-3.423,2.858-8.975    C361.844,44.687,359.644,44.881,357.498,45.048z M345.119,43.205c1.653,0.055,4.977-0.03,8.931-0.284    c-0.869-2.115-1.654-4.082-2.344-5.878C348.608,39.852,346.391,41.946,345.119,43.205z M353.592,35.345    c0.833,2.2,1.821,4.683,2.946,7.403c2.637-0.196,5.376-0.439,8.014-0.71c0.557-2.508,1.131-5.351,1.71-8.476    c-2.035-1.274-4.196-2.561-6.328-3.767C357.852,31.57,355.663,33.491,353.592,35.345z M368.415,34.938    c-0.466,2.471-0.928,4.757-1.38,6.832c4.598-0.515,7.38-0.971,8.725-1.285C374.92,39.579,372.786,37.79,368.415,34.938z     M350.422,25.066c0.091,0.915,0.539,3.049,2.286,7.895c1.651-1.472,3.361-2.97,5.019-4.394    C353.961,26.518,351.571,25.452,350.422,25.066z M361.861,28.168c1.635,0.936,3.276,1.914,4.857,2.891    c0.573-3.227,1.02-5.993,1.289-7.706C366.955,24.077,365.088,25.473,361.861,28.168z"/>
	</g>
	<g>
		<g>
			<g>
				<path style="fill:#B1739A;" d="M49.97,100.04c0,0-21.196,12.647-24.477-3.895C23.174,84.45,48.857,87.09,44.186,89.62      c-4.671,2.531-12.257-9.324-2.555-14.026C51.334,70.892,63.986,93.528,49.97,100.04z"/>
			</g>
			<g>
				<path style="fill:#241726;" d="M43.706,99.983c-2.384,0-5.48-0.354-7.12-1.985c-0.91-0.904-1.295-2.106-1.116-3.474      c0.274-2.101,1.855-3.663,4.391-4.387c-0.993-1.176-1.713-2.536-1.819-3.934c-0.105-1.368,0.337-3.314,3.034-4.808      c2.181-1.207,4.164-1.382,5.893-0.515c3.617,1.805,4.47,7.595,4.505,7.842c0.091,0.645-0.359,1.243-1.005,1.336      c-0.655,0.076-1.247-0.361-1.338-1.005c-0.191-1.334-1.142-5.022-3.222-6.058c-1.003-0.497-2.21-0.344-3.685,0.472      c-2.18,1.207-1.958,2.549-1.603,3.458c0.407,1.033,1.233,1.999,2.144,2.781c2.264-0.065,4.819,0.37,5.496,1.662      c0.34,0.652,0.207,1.401-0.349,1.96c-0.492,0.497-1.457,0.943-3.266,0.277c-0.816-0.303-1.743-0.814-2.64-1.475      c-0.727,0.079-1.46,0.233-2.121,0.492c-1.876,0.735-2.02,1.844-2.069,2.207c-0.083,0.645,0.052,1.105,0.44,1.491      c1.62,1.616,6.674,1.341,8.313,1.119c1.524-0.247,1.841,2.165,0.319,2.344C46.58,99.823,45.303,99.983,43.706,99.983z"/>
			</g>
		</g>
		<g>
			<g>
				<path style="fill:#B1739A;" d="M52.713,102.849c0,0-5.508,24.06,11.241,22.089c11.841-1.393,1.423-25.017,0.453-19.794      c-0.97,5.223,12.644,8.792,14.131-1.887C80.026,92.578,54.595,87.509,52.713,102.849z"/>
			</g>
			<g>
				<path style="fill:#241726;" d="M60.553,115.392c-0.611,0-1.209-0.146-1.777-0.439c-3.432-1.766-4.731-8.489-4.868-9.25      c-0.116-0.645,0.312-1.26,0.955-1.375c0.649-0.111,1.259,0.314,1.375,0.955c0.439,2.432,1.811,6.638,3.622,7.567      c0.484,0.247,0.966,0.238,1.551-0.042c0.333-0.157,1.343-0.636,1.465-2.649c0.044-0.707-0.035-1.452-0.184-2.168      c-0.907-0.649-1.679-1.375-2.217-2.059c-1.19-1.514-1.06-2.57-0.741-3.19c0.359-0.703,1.029-1.068,1.755-0.936      c1.441,0.247,2.65,2.536,3.277,4.731c1.025,0.615,2.197,1.103,3.303,1.17c0.972,0.053,2.321-0.146,2.797-2.589      c0.322-1.657,0.098-2.852-0.686-3.652c-1.625-1.662-5.427-1.426-6.755-1.202c-0.64,0.132-1.255-0.319-1.367-0.962      c-0.112-0.645,0.318-1.257,0.96-1.368c0.245-0.046,6.015-1.012,8.849,1.87c1.353,1.38,1.798,3.321,1.322,5.767      c-0.589,3.026-2.307,4.045-3.643,4.368c-1.361,0.326-2.875,0.058-4.3-0.522c0.091,2.637-0.907,4.62-2.822,5.531      C61.799,115.244,61.169,115.392,60.553,115.392z"/>
			</g>
		</g>
		<g>
			<path style="fill:#241726;" d="M30.384,116.141c-0.269,0-0.534-0.016-0.792-0.046c-1.56-0.183-2.792-0.901-3.661-2.138     c-0.376-0.534-0.247-1.271,0.288-1.648c0.534-0.377,1.272-0.245,1.649,0.289c0.477,0.677,1.112,1.042,1.998,1.146     c4.444,0.532,12.519-5.695,15.272-8.131c0.49-0.435,1.237-0.391,1.671,0.102c0.432,0.488,0.387,1.237-0.102,1.669     C45.659,108.313,36.634,116.141,30.384,116.141z"/>
		</g>
		<g>
			<path style="fill:#241726;" d="M46.049,127.545c-0.364,0-0.723-0.166-0.956-0.483c-5.259-7.172,2.674-18.028,3.015-18.486     c0.392-0.522,1.133-0.631,1.654-0.245c0.526,0.388,0.636,1.13,0.247,1.655c-0.073,0.097-7.236,9.911-3.007,15.675     c0.386,0.527,0.273,1.269-0.254,1.655C46.536,127.471,46.291,127.545,46.049,127.545z"/>
		</g>
	</g>
	<g>
		<g>
			<g>
				<path style="fill:#B1739A;" d="M455.242,368.215c0,0,10.901-22.145,22.655-10.051c8.31,8.55-14.675,20.311-12.133,15.646      s15.357,1.152,9.776,10.377S447.027,381.306,455.242,368.215z"/>
			</g>
			<g>
				<path style="fill:#241726;" d="M467.599,382.691c-3.799,0-7.303-3.982-7.457-4.16c-0.429-0.495-0.376-1.239,0.117-1.669      c0.49-0.428,1.239-0.377,1.669,0.116c0.886,1.015,3.714,3.608,5.999,3.328c1.114-0.127,2.042-0.913,2.835-2.401      c1.173-2.198,0.254-3.206-0.539-3.774c-0.903-0.645-2.121-1.005-3.309-1.167c-1.871,1.306-4.245,2.318-5.517,1.599      c-0.639-0.361-0.935-1.063-0.773-1.833c0.143-0.684,0.71-1.586,2.59-2.011c0.848-0.192,1.906-0.268,3.017-0.201      c0.567-0.46,1.098-0.989,1.51-1.565c1.173-1.639,0.691-2.649,0.533-2.979c-0.28-0.587-0.644-0.899-1.179-1.012      c-2.263-0.481-6.327,2.508-7.582,3.587c-0.496,0.423-1.243,0.374-1.669-0.125c-0.426-0.495-0.371-1.243,0.125-1.669      c0.585-0.504,5.849-4.891,9.613-4.109c1.256,0.263,2.234,1.063,2.828,2.307c0.913,1.914,0.437,4.084-1.297,6.072      c1.473,0.446,2.816,1.195,3.666,2.309c0.833,1.093,1.522,2.965,0.07,5.686c-1.172,2.198-2.74,3.423-4.661,3.64      C467.992,382.68,467.794,382.691,467.599,382.691z"/>
			</g>
		</g>
		<g>
			<g>
				<path style="fill:#B1739A;" d="M451.412,367.351c0,0-8.471-23.184-21.451-12.415c-9.176,7.612,12.42,21.763,10.391,16.853      c-2.029-4.91-15.392-0.496-10.829,9.273C434.087,390.831,458.181,381.245,451.412,367.351z"/>
			</g>
			<g>
				<path style="fill:#241726;" d="M438.187,380.456c-0.398,0-0.795-0.039-1.19-0.127c-1.886-0.421-3.314-1.807-4.246-4.119      c-1.151-2.859-0.267-4.648,0.678-5.647c0.964-1.017,2.38-1.616,3.892-1.902c-1.512-2.163-1.753-4.371-0.641-6.176      c0.725-1.174,1.782-1.863,3.059-1.99c3.786-0.453,8.589,4.549,9.118,5.113c0.447,0.476,0.423,1.225-0.053,1.671      c-0.477,0.451-1.224,0.428-1.673-0.053c-1.692-1.801-5.136-4.553-7.156-4.378c-0.544,0.055-0.938,0.328-1.279,0.881      c-0.193,0.312-0.78,1.264,0.21,3.019c0.349,0.617,0.821,1.2,1.335,1.72c1.113,0.051,2.154,0.238,2.977,0.52      c1.825,0.624,2.292,1.581,2.362,2.277c0.079,0.784-0.291,1.449-0.965,1.74c-1.343,0.573-3.603-0.686-5.325-2.189      c-1.193,0.042-2.438,0.27-3.403,0.816c-0.849,0.478-1.871,1.384-0.94,3.696c0.631,1.567,1.47,2.448,2.566,2.69      c2.301,0.513,5.331-1.754,6.316-2.667c0.478-0.444,1.226-0.416,1.672,0.06c0.445,0.481,0.417,1.23-0.061,1.673      C445.275,377.237,441.764,380.456,438.187,380.456z"/>
			</g>
		</g>
		<g>
			<path style="fill:#241726;" d="M455.125,361.778c-0.105,0-0.211-0.014-0.318-0.044c-0.63-0.173-0.998-0.825-0.824-1.456     c0.156-0.562,3.88-13.787,9.619-16.623c1.41-0.696,2.836-0.763,4.235-0.199c0.607,0.245,0.9,0.934,0.656,1.539     c-0.244,0.608-0.935,0.901-1.539,0.656c-0.773-0.31-1.504-0.273-2.303,0.125c-3.979,1.965-7.403,11.591-8.387,15.134     C456.119,361.436,455.642,361.778,455.125,361.778z"/>
		</g>
		<g>
			<path style="fill:#241726;" d="M450.979,361.147c-0.024,0-0.05,0-0.075-0.002c-0.652-0.042-1.148-0.603-1.107-1.255     c0.008-0.122,0.677-12.252-6.007-14.785c-0.611-0.233-0.919-0.915-0.686-1.528c0.231-0.608,0.919-0.908,1.525-0.686     c8.315,3.155,7.566,16.579,7.53,17.148C452.12,360.664,451.599,361.147,450.979,361.147z"/>
		</g>
	</g>
	<g>
		<g>
			<g>
				<path style="fill:#E7BB00;" d="M62.123,429.253c-11.807-8.135-24.999,4.102-31.5,11.649l6.106,4.915      c19.931-22.762,32.477-4.81,18.166,14.83l7.194,6.419C67.377,458.326,76.5,439.158,62.123,429.253z"/>
			</g>
			<g>
				<path style="fill:#E17B8D;" d="M73.48,414.35c32.135,24.951,11.827,55.965,3.655,66.141l4.918,4.389      c43.809-58.865-17.726-122.085-71.908-60.459l5.674,4.567C24.769,418.235,48.503,394.957,73.48,414.35z"/>
			</g>
			<g>
				<path style="fill:#B1739A;" d="M73.48,414.35c-24.977-19.394-48.711,3.884-57.661,14.637l7.474,6.015      c9.41-11.21,30.552-30.527,50.86-8.58c13.308,14.383,2.142,37.299-4.154,47.701l7.137,6.368      C85.307,470.315,105.614,439.302,73.48,414.35z"/>
			</g>
			<g>
				<path style="fill:#E8800A;" d="M74.153,426.422c-20.307-21.947-41.45-2.63-50.86,8.58l7.33,5.899      c6.501-7.547,19.694-19.784,31.5-11.649c14.376,9.906,5.253,29.074-0.034,37.813l7.909,7.057      C76.294,463.722,87.461,440.805,74.153,426.422z"/>
			</g>
		</g>
		<g>
			<path style="fill:#241726;" d="M77.462,480.89c-0.282,0-0.565-0.099-0.79-0.303c-0.487-0.437-0.526-1.186-0.09-1.671     c0.074-0.083,7.387-8.311,11.131-19.852c4.964-15.306,1.616-28.926-9.951-40.483c-7-6.994-14.917-10.352-23.566-10.02     c-19.877,0.797-37.301,20.989-37.474,21.192c-0.424,0.499-1.171,0.557-1.669,0.134c-0.497-0.425-0.557-1.172-0.134-1.669     c0.736-0.864,18.254-21.176,39.173-22.022c9.322-0.411,17.853,3.224,25.344,10.711c29.215,29.187-0.787,63.249-1.093,63.589     C78.108,480.758,77.785,480.89,77.462,480.89z"/>
		</g>
		<g>
			<path style="fill:#241726;" d="M69.997,475.306c-0.216,0-0.436-0.06-0.632-0.183c-0.551-0.351-0.717-1.082-0.366-1.634     c0.208-0.328,20.564-33.015,1.792-48.785c-5.517-4.637-11.637-6.684-18.161-6.074c-15.362,1.421-28.294,16.967-28.422,17.125     c-0.415,0.504-1.161,0.58-1.665,0.164c-0.506-0.416-0.579-1.16-0.165-1.666c0.551-0.67,13.671-16.459,30.025-17.977     c7.189-0.673,13.89,1.558,19.912,6.617c8.472,7.119,10.902,18.396,7.026,32.615c-2.876,10.553-8.121,18.9-8.343,19.249     C70.773,475.111,70.389,475.306,69.997,475.306z"/>
		</g>
		<g>
			<path style="fill:#241726;" d="M62.088,468.249c-0.223,0-0.45-0.062-0.651-0.196c-0.545-0.358-0.696-1.093-0.336-1.639     c0.155-0.233,15.316-23.596,2.091-34.963c-2.872-2.466-6.185-3.576-9.881-3.284c-10.902,0.851-21.679,13.376-21.786,13.503     c-0.426,0.499-1.173,0.557-1.668,0.134c-0.498-0.423-0.558-1.17-0.135-1.669c0.465-0.545,11.511-13.394,23.4-14.328     c4.344-0.328,8.246,0.957,11.612,3.851c14.805,12.721-0.978,37.032-1.656,38.06C62.85,468.062,62.473,468.249,62.088,468.249z"/>
		</g>
	</g>
	<g>
		<path style="fill:#241726;" d="M122.687,454.438h-0.035c-4.512-0.018-8.166-3.705-8.147-8.219    c0.018-4.493,3.689-8.147,8.182-8.147c4.437-0.075,8.284,3.798,8.184,8.217C130.85,450.782,127.178,454.438,122.687,454.438z     M122.712,440.439c-3.22,0-5.827,2.598-5.841,5.79c-0.014,3.208,2.584,5.829,5.79,5.843l0.025,1.183v-1.183    c3.192,0,5.801-2.598,5.818-5.792c0.007-1.553-0.592-3.016-1.687-4.119C125.724,441.056,124.266,440.446,122.712,440.439z"/>
	</g>
	<g>
		<path style="fill:#241726;" d="M306.708,39.411h-0.035c-4.512-0.018-8.166-3.705-8.147-8.219c0.018-4.493,3.689-8.147,8.182-8.147    c4.437-0.075,8.284,3.798,8.184,8.217C314.872,35.754,311.199,39.411,306.708,39.411z M306.734,25.411    c-3.22,0-5.827,2.598-5.841,5.79c-0.014,3.208,2.584,5.829,5.79,5.843l0.025,1.183v-1.183c3.192,0,5.801-2.598,5.818-5.792    c0.007-1.553-0.592-3.016-1.687-4.119C309.745,26.028,308.287,25.418,306.734,25.411z"/>
	</g>
	<g>
		<path style="fill:#241726;" d="M41.129,177.599c-0.876,0-1.705,0-4.01-9.183c-7.783-1.498-8.465-2.413-8.693-2.72    c-0.22-0.296-0.314-0.837-0.215-1.19c0.142-0.499,0.468-1.655,9.361-5.24c3.459-8.735,4.357-9.115,6.106-7.757    c0.572,0.767,1.09,2.76,1.874,5.949c0.245,1.001,0.542,2.205,0.713,2.737c0.467,0.208,1.498,0.578,2.354,0.885    c4.569,1.639,5.748,2.196,5.962,3.287c0.08,0.409-0.128,1.008-0.438,1.285c-0.929,0.832-5.348,2.473-7.667,3.301    c-3.764,8.563-4.568,8.607-5.279,8.644C41.178,177.599,41.151,177.599,41.129,177.599z M31.435,164.677    c1.556,0.448,4.391,1.093,6.866,1.556c0.456,0.083,0.821,0.428,0.931,0.878c0.632,2.563,1.46,5.482,2.055,7.149    c0.862-1.551,2.168-4.299,3.227-6.726c0.132-0.3,0.383-0.534,0.692-0.643c2.114-0.744,4.501-1.657,5.987-2.309    c-1.04-0.437-2.456-0.945-3.373-1.274c-2.614-0.938-3.106-1.142-3.443-1.592c-0.292-0.393-0.474-1.049-1.123-3.691    c-0.244-0.992-0.618-2.515-0.952-3.654c-0.775,1.479-1.859,3.994-2.702,6.22c-0.118,0.312-0.361,0.557-0.668,0.682    C36.185,162.368,33.068,163.764,31.435,164.677z"/>
	</g>
	<g>
		<path style="fill:#241726;" d="M474.526,286.933c-0.876,0-1.705,0-4.01-9.183c-7.781-1.495-8.44-2.378-8.693-2.718    c-0.22-0.294-0.314-0.837-0.215-1.19c0.142-0.499,0.468-1.655,9.361-5.24c3.46-8.74,4.353-9.113,6.108-7.757    c0.571,0.767,1.089,2.76,1.873,5.949c0.245,1.001,0.542,2.205,0.713,2.737c0.467,0.208,1.498,0.578,2.354,0.885    c4.569,1.639,5.748,2.196,5.962,3.287c0.08,0.409-0.128,1.008-0.438,1.285c-0.929,0.832-5.348,2.473-7.667,3.301    c-3.765,8.566-4.571,8.607-5.283,8.642C474.572,286.933,474.546,286.933,474.526,286.933z M464.835,274.013    c1.554,0.448,4.389,1.091,6.863,1.553c0.456,0.086,0.821,0.428,0.931,0.878c0.632,2.563,1.46,5.485,2.055,7.151    c0.862-1.551,2.168-4.299,3.227-6.726c0.132-0.3,0.383-0.534,0.692-0.643c2.114-0.744,4.501-1.657,5.987-2.309    c-1.04-0.437-2.456-0.945-3.373-1.274c-2.614-0.938-3.106-1.142-3.443-1.592c-0.292-0.393-0.474-1.049-1.123-3.691    c-0.244-0.994-0.618-2.515-0.952-3.656c-0.775,1.482-1.859,3.996-2.702,6.222c-0.118,0.312-0.361,0.557-0.668,0.682    C469.583,271.704,466.468,273.1,464.835,274.013z"/>
	</g>
	<g>
		<path style="fill:#241726;" d="M257.836,503.841c-0.876,0-1.703,0-4.009-9.183c-7.783-1.498-8.465-2.413-8.694-2.72    c-0.22-0.294-0.314-0.834-0.215-1.19c0.141-0.497,0.466-1.653,9.361-5.237c3.46-8.74,4.353-9.113,6.108-7.757    c0.571,0.767,1.089,2.76,1.873,5.949c0.245,1.001,0.542,2.205,0.713,2.737c0.467,0.208,1.497,0.578,2.351,0.883    c4.572,1.639,5.752,2.196,5.966,3.289c0.081,0.409-0.127,1.005-0.438,1.285c-0.929,0.832-5.348,2.473-7.667,3.298    c-3.765,8.568-4.571,8.61-5.283,8.644C257.882,503.841,257.855,503.841,257.836,503.841z M248.144,490.919    c1.557,0.451,4.391,1.093,6.865,1.556c0.456,0.086,0.821,0.428,0.931,0.878c0.632,2.563,1.46,5.482,2.055,7.149    c0.861-1.551,2.167-4.297,3.225-6.726c0.132-0.3,0.383-0.534,0.692-0.643c2.114-0.744,4.502-1.657,5.989-2.307    c-1.041-0.439-2.458-0.948-3.377-1.276c-2.612-0.936-3.104-1.139-3.44-1.59c-0.292-0.393-0.474-1.049-1.123-3.691    c-0.244-0.994-0.618-2.515-0.952-3.656c-0.775,1.482-1.859,3.996-2.702,6.222c-0.118,0.312-0.361,0.557-0.668,0.682    C252.894,488.609,249.778,490.006,248.144,490.919z"/>
	</g>
	<g>
		<g>
			<path style="fill:#241726;" d="M322.423,92.502h-0.007c-0.654-0.005-1.181-0.536-1.176-1.19l0.118-19.917     c0.004-0.654,0.538-1.18,1.19-1.176c0.654,0.005,1.181,0.536,1.176,1.19l-0.118,19.917     C323.602,91.977,323.072,92.502,322.423,92.502z"/>
		</g>
		<g>
			<path style="fill:#241726;" d="M314.393,88.154c-0.372,0-0.74-0.176-0.971-0.506c-0.374-0.536-0.243-1.274,0.294-1.648     l16.447-11.466c0.529-0.37,1.271-0.245,1.648,0.294c0.374,0.536,0.243,1.274-0.294,1.648l-16.447,11.466     C314.865,88.085,314.629,88.154,314.393,88.154z"/>
		</g>
		<g>
			<path style="fill:#241726;" d="M328.835,88.991c-0.314,0-0.626-0.125-0.86-0.37l-12.435-13.14     c-0.448-0.474-0.428-1.225,0.046-1.673c0.476-0.451,1.223-0.425,1.673,0.046l12.435,13.14c0.448,0.474,0.428,1.225-0.046,1.673     C329.419,88.885,329.126,88.991,328.835,88.991z"/>
		</g>
		<g>
			<path style="fill:#241726;" d="M312.145,82.332c-0.65,0-1.176-0.522-1.183-1.172c-0.007-0.654,0.518-1.188,1.172-1.195     l19.156-0.183c0.656-0.004,1.188,0.52,1.195,1.172c0.007,0.654-0.518,1.188-1.172,1.195l-19.156,0.183H312.145z"/>
		</g>
	</g>
	<g>
		<g>
			<path style="fill:#241726;" d="M76.277,382.828H76.27c-0.654-0.005-1.181-0.536-1.176-1.19l0.118-19.917     c0.004-0.654,0.538-1.18,1.19-1.176c0.654,0.005,1.181,0.536,1.176,1.19l-0.118,19.917     C77.456,382.303,76.927,382.828,76.277,382.828z"/>
		</g>
		<g>
			<path style="fill:#241726;" d="M68.248,378.48c-0.372,0-0.74-0.176-0.971-0.506c-0.374-0.536-0.243-1.274,0.294-1.648     l16.447-11.466c0.529-0.37,1.271-0.245,1.648,0.294c0.374,0.536,0.243,1.274-0.294,1.648l-16.447,11.466     C68.719,378.411,68.483,378.48,68.248,378.48z"/>
		</g>
		<g>
			<path style="fill:#241726;" d="M82.689,379.317c-0.314,0-0.626-0.125-0.86-0.37l-12.435-13.14     c-0.448-0.474-0.428-1.225,0.046-1.673c0.476-0.451,1.223-0.425,1.673,0.046l12.435,13.14c0.448,0.474,0.428,1.225-0.046,1.673     C83.274,379.21,82.98,379.317,82.689,379.317z"/>
		</g>
		<g>
			<path style="fill:#241726;" d="M65.999,372.658c-0.649,0-1.176-0.522-1.183-1.172c-0.007-0.654,0.518-1.188,1.172-1.195     l19.156-0.183c0.656-0.004,1.188,0.52,1.195,1.172c0.007,0.654-0.518,1.188-1.172,1.195l-19.156,0.183H65.999z"/>
		</g>
	</g>
	<g>
		<g>
			<path style="fill:#241726;" d="M481.729,329.715h-0.007c-0.654-0.005-1.181-0.536-1.176-1.19l0.118-19.917     c0.004-0.654,0.538-1.18,1.19-1.176c0.654,0.005,1.181,0.536,1.176,1.19l-0.118,19.917     C482.908,329.19,482.378,329.715,481.729,329.715z"/>
		</g>
		<g>
			<path style="fill:#241726;" d="M473.699,325.368c-0.372,0-0.74-0.176-0.971-0.506c-0.374-0.536-0.243-1.274,0.294-1.648     l16.447-11.466c0.529-0.37,1.271-0.245,1.648,0.294c0.374,0.536,0.243,1.274-0.294,1.648l-16.447,11.466     C474.171,325.298,473.935,325.368,473.699,325.368z"/>
		</g>
		<g>
			<path style="fill:#241726;" d="M488.14,326.204c-0.314,0-0.626-0.125-0.86-0.37l-12.435-13.14     c-0.448-0.474-0.428-1.225,0.046-1.673c0.476-0.451,1.223-0.425,1.673,0.046L489,324.207c0.448,0.474,0.428,1.225-0.046,1.673     C488.725,326.098,488.432,326.204,488.14,326.204z"/>
		</g>
		<g>
			<path style="fill:#241726;" d="M471.45,319.545c-0.65,0-1.176-0.522-1.183-1.172c-0.007-0.654,0.518-1.188,1.172-1.195     l19.156-0.183c0.656-0.004,1.188,0.52,1.195,1.172c0.007,0.654-0.518,1.188-1.172,1.195l-19.156,0.183H471.45z"/>
		</g>
	</g>
	<g>
		<g>
			<path style="fill:#E2B700;" d="M381.018,98.322c0,0-20.971,14.063-9.138,34.443c12.652,21.79,37.957-3.515,37.957-3.515     L381.018,98.322z"/>
		</g>
		<g>
			<polygon style="fill:#1A1F36;" points="467.55,216.256 490.035,153.536 433.232,100.283 424.948,113.301 474.651,158.27      453.418,214.303 413.114,212.706 409.564,230.457 506.602,231.64 506.997,216.65    "/>
		</g>
		<g>
			<path style="fill:#52AFA6;" d="M400.097,77.799c0,0,27.218-31.952,44.969-13.017s-10.651,46.152-10.651,46.152l-13.738,47.704     l-66.733-65.455L400.097,77.799z"/>
		</g>
		<g>
			<path style="fill:#241726;" d="M421.694,151.169c-0.32,0-0.639-0.129-0.873-0.384l-54.364-59.398     c-0.441-0.483-0.409-1.232,0.074-1.673c0.482-0.441,1.23-0.409,1.671,0.074l54.364,59.398c0.441,0.483,0.409,1.232-0.074,1.673     C422.266,151.067,421.979,151.169,421.694,151.169z"/>
		</g>
		<g>
			<path style="fill:#241726;" d="M433.528,111.23c-0.302,0-0.602-0.113-0.833-0.342l-31.36-31.064     c-0.463-0.46-0.467-1.209-0.008-1.673c0.462-0.462,1.21-0.472,1.675-0.009l31.36,31.064c0.463,0.46,0.467,1.209,0.008,1.673     C434.137,111.112,433.833,111.23,433.528,111.23z"/>
		</g>
		<g>
			<path style="fill:#241726;" d="M415.184,73.065c-0.235,0-0.471-0.072-0.678-0.217c-0.534-0.374-0.664-1.109-0.29-1.646     c0.269-0.384,6.729-9.439,18.518-8.487c0.651,0.051,1.137,0.619,1.086,1.271c-0.052,0.652-0.615,1.126-1.274,1.086     c-10.377-0.786-16.335,7.405-16.393,7.489C415.923,72.89,415.556,73.065,415.184,73.065z"/>
		</g>
		<g>
			<path style="fill:#241726;" d="M442.698,70.107c-0.52,0-0.997-0.347-1.141-0.871c-0.66-2.422-3.652-2.681-3.683-2.683     c-0.651-0.049-1.138-0.617-1.089-1.269c0.049-0.652,0.604-1.197,1.271-1.089c0.191,0.014,4.69,0.404,5.784,4.417     c0.172,0.631-0.2,1.283-0.831,1.454C442.906,70.093,442.802,70.107,442.698,70.107z"/>
		</g>
		<g>
			<path style="fill:#FBFCFF;" d="M489.641,227.302c-0.008,0-0.017,0-0.025,0l-54.042-1.183c-0.654-0.014-1.172-0.557-1.158-1.209     c0.015-0.652,0.541-1.137,1.209-1.158l54.042,1.183c0.654,0.014,1.172,0.557,1.158,1.209     C490.81,226.788,490.283,227.302,489.641,227.302z"/>
		</g>
		<g>
			<path style="fill:#241726;" d="M354.309,147.64c-0.364,0-0.723-0.166-0.956-0.483c-0.386-0.527-0.273-1.269,0.254-1.655     l12.602-9.241c0.527-0.388,1.268-0.273,1.655,0.254c0.386,0.527,0.273,1.269-0.254,1.655l-12.602,9.241     C354.796,147.566,354.551,147.64,354.309,147.64z"/>
		</g>
		<g>
			<path style="fill:#241726;" d="M370.271,152.26c-0.143,0-0.288-0.025-0.429-0.081c-0.609-0.236-0.911-0.922-0.674-1.532     l2.94-7.56c0.236-0.608,0.926-0.913,1.531-0.673c0.609,0.236,0.911,0.922,0.674,1.532l-2.94,7.56     C371.192,151.974,370.744,152.26,370.271,152.26z"/>
		</g>
		<g>
			<path style="fill:#241726;" d="M381.193,163.602c-0.02,0-0.04,0-0.06-0.002c-0.653-0.032-1.156-0.587-1.123-1.241l0.84-16.801     c0.034-0.652,0.603-1.223,1.241-1.121c0.653,0.032,1.156,0.587,1.123,1.241l-0.84,16.801     C382.341,163.109,381.819,163.602,381.193,163.602z"/>
		</g>
		<g>
			<path style="fill:#241726;" d="M393.373,153.94c-0.51,0-0.98-0.331-1.134-0.844l-2.521-8.402     c-0.187-0.626,0.168-1.285,0.794-1.472c0.629-0.194,1.285,0.166,1.473,0.793l2.521,8.402c0.187,0.626-0.168,1.285-0.794,1.472     C393.6,153.924,393.485,153.94,393.373,153.94z"/>
		</g>
		<g>
			<path style="fill:#241726;" d="M353.467,130.837c-0.582,0-1.091-0.43-1.172-1.024c-0.088-0.647,0.365-1.243,1.014-1.331     l9.241-1.26c0.648-0.113,1.243,0.365,1.332,1.012c0.088,0.647-0.365,1.243-1.014,1.331l-9.241,1.26     C353.574,130.834,353.521,130.837,353.467,130.837z"/>
		</g>
		<g>
			<path style="fill:#241726;" d="M362.291,119.077c-0.012,0-0.022,0-0.032,0l-15.963-0.421c-0.653-0.018-1.17-0.562-1.152-1.213     c0.017-0.657,0.564-1.171,1.215-1.153l15.963,0.421c0.653,0.018,1.17,0.562,1.152,1.213     C363.456,118.568,362.93,119.077,362.291,119.077z"/>
		</g>
		<g>
			<path style="fill:#241726;" d="M364.809,111.935c-0.194,0-0.392-0.049-0.573-0.148l-7.561-4.2     c-0.572-0.319-0.778-1.038-0.46-1.611c0.318-0.569,1.037-0.774,1.609-0.46l7.561,4.2c0.572,0.319,0.778,1.038,0.46,1.611     C365.628,111.715,365.225,111.935,364.809,111.935z"/>
		</g>
	</g>
	<g>
		<g>
			<g>
				<path style="fill:#E8800A;" d="M343.888,375.207c0,0,49.522-6.507,70.269,37.731c20.747,44.237-68.437,15.192-85.323,3.674      S343.888,375.207,343.888,375.207z"/>
			</g>
			<g>
				<path style="fill:#241726;" d="M392.738,436.066c-0.408,0-0.805-0.21-1.025-0.589c-4.446-7.662,10.106-33.117,11.781-35.992      c0.328-0.569,1.054-0.758,1.618-0.43c0.565,0.331,0.756,1.054,0.428,1.618c-4.356,7.491-14.965,28.126-11.778,33.616      c0.328,0.566,0.135,1.29-0.43,1.618C393.143,436.016,392.939,436.066,392.738,436.066z"/>
			</g>
			<g>
				<path style="fill:#241726;" d="M394.715,419.33c-0.129,0-0.261-0.021-0.391-0.067c-0.617-0.215-0.942-0.89-0.727-1.507      c0.023-0.065,0.09-0.259-0.122-0.68c-2.511-4.96-26.074-13.695-41.299-18.354c-0.625-0.192-0.977-0.855-0.785-1.479      c0.191-0.622,0.849-0.975,1.478-0.786c2.711,1.28,44.919,12.785,42.963,22.08C395.662,419.025,395.204,419.33,394.715,419.33z"/>
			</g>
			<g>
				<path style="fill:#241726;" d="M390.651,423.53c-10.089,0-34.462-13.161-37.397-14.767c-1.359-0.716-0.199-2.836,1.135-2.076      c8.339,4.56,31.373,16.034,37.647,14.33c0.628-0.166,1.28,0.201,1.452,0.834c0.17,0.631-0.203,1.28-0.834,1.449      C392.074,423.458,391.402,423.53,390.651,423.53z"/>
			</g>
			<g>
				<path style="fill:#241726;" d="M378.412,427.186c-0.565,0-1.064-0.404-1.165-0.98c-1.931-11.09,7.949-24.775,8.37-25.353      c0.385-0.527,1.122-0.645,1.654-0.257c0.527,0.384,0.643,1.123,0.258,1.653c-0.097,0.134-9.709,13.454-7.95,23.55      c0.112,0.645-0.319,1.257-0.963,1.368C378.547,427.182,378.479,427.186,378.412,427.186z"/>
			</g>
			<g>
				<path style="fill:#241726;" d="M366.032,423.828c-0.554,0-1.049-0.391-1.16-0.955c-1.937-9.839,7.067-28.741,7.451-29.541      c0.283-0.587,0.988-0.837,1.579-0.555c0.589,0.284,0.838,0.992,0.555,1.581c-0.09,0.187-9.048,18.987-7.261,28.057      c0.126,0.643-0.291,1.264-0.933,1.389C366.184,423.821,366.107,423.828,366.032,423.828z"/>
			</g>
		</g>
		<g>
			<g>
				<path style="fill:#E8800A;" d="M305.254,459.342c0,0,38.232,32.142,79.53,6.031s-49.496-49.644-69.927-49.028      C294.425,416.961,305.254,459.342,305.254,459.342z"/>
			</g>
			<g>
				<path style="fill:#241726;" d="M369.739,472.201c-0.017,0-0.034,0-0.051,0c-0.653-0.028-1.16-0.58-1.133-1.232      c0.138-3.326,1.576-32.61,9.449-36.674c0.582-0.303,1.294-0.072,1.595,0.508c0.299,0.58,0.072,1.294-0.508,1.595      c-5.641,2.91-7.81,26.012-8.171,34.667C370.894,471.705,370.37,472.201,369.739,472.201z"/>
			</g>
			<g>
				<path style="fill:#241726;" d="M364.592,453.861c-12.6,0-37.038-6.68-40.328-7.595c-0.63-0.176-0.998-0.827-0.824-1.456      c0.177-0.631,0.834-1.003,1.457-0.823c15.344,4.267,39.906,9.599,44.687,6.763c0.406-0.24,0.453-0.439,0.468-0.506      c0.151-0.636,0.782-1.042,1.425-0.878c0.636,0.15,1.03,0.788,0.878,1.424c-0.134,0.569-0.515,1.378-1.567,1.999      C369.507,453.545,367.328,453.861,364.592,453.861z"/>
			</g>
			<g>
				<path style="fill:#241726;" d="M371.366,447.043c-0.321,0-0.641-0.129-0.875-0.386c-4.386-4.819-29.958-7.546-39.44-8.191      c-0.653-0.044-1.145-0.61-1.101-1.262c0.045-0.649,0.618-1.158,1.261-1.1c3.587,0.245,35.213,2.568,41.03,8.959      c0.44,0.483,0.406,1.232-0.079,1.673C371.936,446.941,371.65,447.043,371.366,447.043z"/>
			</g>
			<g>
				<path style="fill:#241726;" d="M355.409,461.301c-0.619,0-1.141-0.483-1.18-1.109c-0.045-0.714-1.004-17.564,6.593-25.873      c0.441-0.481,1.191-0.515,1.672-0.074c0.482,0.441,0.515,1.19,0.075,1.673c-6.927,7.572-5.989,23.961-5.978,24.126      c0.04,0.652-0.455,1.213-1.107,1.255C355.459,461.301,355.433,461.301,355.409,461.301z"/>
			</g>
			<g>
				<path style="fill:#241726;" d="M340.151,460.698c-0.047,0-0.095-0.002-0.143-0.009c-0.649-0.079-1.112-0.668-1.033-1.317      c0.107-0.881,2.694-21.655,9.624-28.903c0.451-0.471,1.2-0.49,1.673-0.037c0.472,0.451,0.489,1.2,0.037,1.673      c-6.391,6.684-8.96,27.345-8.984,27.553C341.252,460.257,340.741,460.698,340.151,460.698z"/>
			</g>
		</g>
		<g>
			<path style="fill:#E38B72;" d="M288.069,171.681c0,0,55.225,45.758,55.225,123.073c0,40.305-42.01,19.723-44.969-33.529     C297.08,238.806,288.069,171.681,288.069,171.681z"/>
		</g>
		<g>
			<path style="fill:#E2B700;" d="M298.325,245.841c0,0,34.318-7.692,34.318-13.017c0-5.325-20.118-57.986-53.253-62.72     C264.457,167.97,265.782,250.574,298.325,245.841z"/>
		</g>
		<g>
			<path style="fill:#E38B72;" d="M138.173,202.45c0,0-35.502,62.325-22.879,100.194s47.336-8.678,48.125-29.979     C164.207,251.363,153.162,194.56,138.173,202.45z"/>
		</g>
		<g>
			<path style="fill:#1A1F36;" d="M179.188,136.377c0,0-24.157-17.684-43.372,3.497s5.27,45.597-18.348,31.4     c-23.618-14.197-26.035,14.024-10.498,19.832c0,0-19.803-8.004-18.936,2.216c0.867,10.219,13.688,40.01,66.951,28.913     S194.724,142.185,179.188,136.377z"/>
		</g>
		<g>
			<path style="fill:#E2B700;" d="M115.491,251.166c0,0,42.602,5.917,49.111,4.142c6.509-1.775,7.1-78.696-1.775-76.921     C153.951,180.162,120.225,196.73,115.491,251.166z"/>
		</g>
		<g>
			<path style="fill:#1A1F36;" d="M257.488,34.933c0,0-60.922-46.305-99.405,33.135c-14.848,30.651,0.789,85.204,49.702,79.682     c13.176-1.488,27.525,1.787,51.28-5.522C300.09,129.604,302.457,41.441,257.488,34.933z"/>
		</g>
		<g>
			<path style="fill:#E38B72;" d="M235.211,142.491c0,0-5.128,20.907-1.578,22.879c3.55,1.972,25.64,0.789,26.824,5.523     c1.183,4.734-5.917,27.612-26.429,38.263c-20.512,10.651-59.564-35.107-53.253-36.685c6.311-1.578,23.668-6.311,23.668-6.311     s-2.761-36.291-3.55-37.869C200.104,126.712,235.211,142.491,235.211,142.491z"/>
		</g>
		<g>
			<path style="fill:#E2B700;" d="M194.976,166.948c0,0,17.356,24.457,27.613,24.457s14.99-28.401,14.99-28.401     s33.135,0.789,50.491,8.678c17.356,7.889,10.256,133.329,5.523,138.062c-4.734,4.734-120.706,9.467-134.118,1.578     s-30.768-97.827-18.934-115.972S194.976,166.948,194.976,166.948z"/>
		</g>
		<g>
			<g>
				<path style="fill:#FFFFFF;" d="M151.584,200.872c0,0,4.734-14.201,22.879-13.412c18.145,0.789,41.616,36.488,41.616,36.488      s29.979-37.869,49.702-35.502c19.723,2.367,24.851,20.118,24.851,20.118l-83.035,27.021L151.584,200.872z"/>
			</g>
			<g>
				<path style="fill:#241726;" d="M207.598,236.769c-0.218,0-0.435-0.06-0.623-0.178l-56.014-34.714      c-0.467-0.289-0.674-0.86-0.499-1.38c0.05-0.148,5.304-14.996,24.052-14.222c16.715,0.73,37.094,29.039,41.652,35.684      c5.508-6.7,31.452-36.939,49.757-34.688c20.268,2.432,25.794,20.779,25.847,20.964c0.177,0.613-0.164,1.255-0.771,1.454      l-83.035,27.022C207.844,236.75,207.721,236.769,207.598,236.769z M153.053,200.389l54.701,33.902l81.37-26.481      c-1.443-3.809-7.353-16.253-23.483-18.19c-18.897-2.219-48.347,34.7-48.634,35.063c-0.237,0.298-0.603,0.481-0.98,0.446      c-0.379-0.016-0.728-0.213-0.937-0.532c-0.231-0.351-23.345-35.201-40.679-35.955      C159.799,187.977,154.38,197.428,153.053,200.389z"/>
			</g>
		</g>
		<g>
			<path style="fill:#1A1F36;" d="M245.861,45.847c0,0,19.723-4.339,30.768,14.99c11.045,19.329,14.595,59.17-16.962,75.343     S215.093,44.269,245.861,45.847z"/>
		</g>
		<g>
			<path style="fill:#E38B72;" d="M195.238,95.956c0,0-7.064-19.909-15.244-10.487s-7.695,26.387,3.397,29.503     C194.483,118.088,195.238,95.956,195.238,95.956z"/>
		</g>
		<g>
			<path style="fill:#241726;" d="M187.057,106.561c-0.581,0-1.089-0.428-1.171-1.022c-0.69-4.974-2.022-9.832-2.853-10.396     c-0.461,0.009-1.995,2.119-2.987,4.627c-0.242,0.608-0.931,0.908-1.536,0.663c-0.608-0.24-0.905-0.929-0.665-1.537     c0.63-1.588,2.933-6.701,5.836-6.019c2.428,0.582,3.814,7.031,4.549,12.338c0.09,0.647-0.362,1.243-1.009,1.334     C187.166,106.556,187.111,106.561,187.057,106.561z"/>
		</g>
		<g>
			<path style="fill:#E38B72;" d="M205.046,53.59c0,0,46.245-8.882,62.212,14.011c6.816,9.773,4.545,59.972-8.106,75.444     c-4.872,5.958-19.854,8.777-25.455,8.793c-40.701,0.118-39.328-37.005-39.328-37.005S182.725,55.522,205.046,53.59z"/>
		</g>
		<g>
			<path style="fill:#241726;" d="M227.303,107.171c-0.12,0-0.244-0.014-0.368-0.039c-2.411-0.518-6.973-9.164-9.478-14.272     c-0.288-0.585-0.046-1.294,0.541-1.583c0.589-0.287,1.295-0.046,1.583,0.543c2.553,5.203,5.895,11.062,7.449,12.645     c0.576-1.976,0.845-8.277,0.707-13.699c-0.016-0.654,0.5-1.197,1.153-1.213c0.765,0.012,1.197,0.502,1.213,1.153     c0.134,5.348,0.082,14.552-1.787,16.098C228.028,107.046,227.676,107.171,227.303,107.171z"/>
		</g>
		<g>
			<path style="fill:#241726;" d="M261.798,106.646c-0.065,0-0.131-0.005-0.196-0.012c-0.619-0.081-2.507-0.324-7.84-14.497     c-0.231-0.61,0.079-1.294,0.69-1.523c0.614-0.238,1.294,0.079,1.524,0.691c1.78,4.727,4.119,10.07,5.465,12.188     c0.371-2.339,0.369-7.565,0.083-12.095c-0.042-0.652,0.454-1.213,1.106-1.255c0.643-0.058,1.215,0.455,1.256,1.107     c0.184,2.917,0.669,12.606-0.833,14.728C262.751,106.406,262.292,106.646,261.798,106.646z"/>
		</g>
		<g>
			<path style="fill:#241726;" d="M235.677,151.902c-17.303,0-26.157-8.956-26.564-9.379c-0.453-0.469-0.439-1.216,0.029-1.671     c0.472-0.453,1.222-0.435,1.673,0.028c0.103,0.104,10.552,10.602,30.574,8.325c0.648-0.067,1.235,0.395,1.309,1.042     c0.073,0.649-0.394,1.237-1.044,1.311C239.561,151.793,237.569,151.902,235.677,151.902z"/>
		</g>
		<g>
			<path style="fill:#241726;" d="M235.885,137.401c-0.625,0-1.227-0.106-1.797-0.347c-3.666-1.532-4.79-7.685-3.439-18.805     c0.08-0.647,0.67-1.128,1.319-1.031c0.648,0.079,1.111,0.668,1.032,1.317c-1.56,12.832,0.585,15.742,2.003,16.336     c3.274,1.364,10.244-5.355,13.868-9.918c0.408-0.511,1.151-0.599,1.663-0.19c0.512,0.407,0.597,1.151,0.191,1.664     C249.752,127.649,241.811,137.401,235.885,137.401z"/>
		</g>
		<g>
			<path style="fill:#B1739A;" d="M137.55,269.515c0,0,1.263-81.044,14.824-74.955c13.561,6.089,52.844,26.393,64.889,24.062     c12.046-2.331,78.787-33.551,81-20.336c2.213,13.215,10.935,90.865,5.904,93.902c-5.03,3.037-82.813,36.548-104.441,28.466     C178.099,312.573,135.204,281.09,137.55,269.515z"/>
		</g>
		<g>
			<path style="fill:#FBFCFF;" d="M224.525,112.422c-9.647,0-17.497-7.849-17.497-17.497c0.822-23.157,34.174-23.152,34.992,0     C242.02,104.573,234.172,112.422,224.525,112.422z M224.525,79.796c-19.995,0.637-19.99,29.626,0,30.26     C244.518,109.419,244.514,80.43,224.525,79.796z"/>
		</g>
		<g>
			<path style="fill:#FBFCFF;" d="M264.746,112.674c-9.647,0-17.497-7.849-17.497-17.497c0.821-23.154,34.175-23.149,34.992,0     C282.242,104.825,274.394,112.674,264.746,112.674z M264.746,80.05c-19.996,0.636-19.989,29.624,0,30.257     C284.739,109.671,284.736,80.683,264.746,80.05z"/>
		</g>
		<g>
			<path style="fill:#FBFCFF;" d="M208.091,94.662c-0.129,0-0.261-0.021-0.391-0.067l-17.751-6.213     c-0.617-0.215-0.942-0.89-0.727-1.507c0.217-0.617,0.893-0.945,1.508-0.726l17.751,6.213c0.617,0.215,0.942,0.89,0.727,1.507     C209.038,94.357,208.58,94.662,208.091,94.662z"/>
		</g>
		<g>
			<path style="fill:#FBFCFF;" d="M241.821,96.731c-0.327,0-0.652-0.134-0.885-0.398c-0.432-0.485-0.392-1.23,0.094-1.664     c1.467-1.317,5.066-3.097,8.181-0.384c0.493,0.428,0.545,1.176,0.117,1.669c-0.43,0.492-1.176,0.545-1.67,0.116     c-2.269-1.967-4.774,0.12-5.053,0.365C242.379,96.634,242.099,96.731,241.821,96.731z"/>
		</g>
		<g>
			<path style="fill:#241726;" d="M242.473,118.654c-0.556,0-1.052-0.393-1.16-0.959c-0.125-0.643,0.296-1.262,0.937-1.387     c0.355-0.067,8.363-1.606,12.716-1.692c-0.826-2.462-6.451-9.946-11.721-16.105c-0.425-0.497-0.366-1.243,0.129-1.669     c0.498-0.425,1.246-0.365,1.669,0.129c9.06,10.593,13.17,16.993,12.213,19.024c-0.302,0.64-0.953,0.959-1.708,0.985     c-4.01-0.12-12.76,1.634-12.85,1.653C242.624,118.647,242.547,118.654,242.473,118.654z"/>
		</g>
		<g>
			<path style="fill:#1A1F36;" d="M207.796,44.072c0,0-9.763,22.484,10.059,33.135s42.898,9.171,47.336-1.479     C269.628,65.077,246.552,13.6,207.796,44.072z"/>
		</g>
		<g>
			<path style="fill:#E38B72;" d="M125.55,254.124c0,0,8.875-21.893,26.429-20.118c14.178,1.434-3.156,8.284-3.156,8.284     s9.862-5.917,14.595-1.972c4.734,3.945-15.384,9.862-15.384,9.862s16.962-6.706,19.723-2.367s-27.052,19.336-30.208,21.702     C134.394,271.882,123.578,261.225,125.55,254.124z"/>
		</g>
		<g>
			<path style="fill:#241726;" d="M142.908,244.657c-0.441,0-0.864-0.247-1.068-0.67c-0.283-0.589-0.035-1.297,0.555-1.581     c4.609-2.212,10.356-4.849,11.557-4.849c1.535-0.023,1.536,2.39,0,2.367c-0.799,0.118-6.001,2.443-10.533,4.618     C143.253,244.62,143.079,244.657,142.908,244.657z"/>
		</g>
		<g>
			<path style="fill:#241726;" d="M144.485,251.758c-0.453,0-0.884-0.261-1.081-0.7c-0.268-0.596-0.001-1.297,0.595-1.562     c1.984-0.89,12.048-5.272,15.495-3.973c0.611,0.229,0.921,0.911,0.692,1.523c-0.23,0.613-0.915,0.929-1.524,0.691     c-1.861-0.691-9.13,1.872-13.695,3.918C144.811,251.725,144.647,251.758,144.485,251.758z"/>
		</g>
		<g>
			<path style="fill:#241726;" d="M221.014,302.049c-6.149,0-12.91-0.973-15.238-3.303c-4.094-4.096-2.978-65.02-2.713-77.191     c0.014-0.652,0.548-1.13,1.209-1.158c0.654,0.014,1.172,0.555,1.158,1.209c-0.751,34.482-0.296,72.654,2.03,75.478     c2.195,2.193,11.803,3.074,18.597,2.355c4.033-0.425,5.365-1.209,5.537-1.477c0.942-3.053-2.738-47.296-5.45-76.271     c-0.06-0.652,0.418-1.227,1.069-1.29c0.633-0.035,1.227,0.418,1.289,1.068c1.626,17.383,6.809,74.353,5.205,77.561     c-0.378,0.756-1.361,1.84-5.524,2.515C226.168,301.871,223.647,302.049,221.014,302.049z"/>
		</g>
		<g>
			<path style="fill:#241726;" d="M118.448,308.56c-0.559,0-1.056-0.398-1.163-0.968c-7.715-41.541,11.902-62.304,12.741-63.168     c0.455-0.467,1.204-0.478,1.671-0.023c0.469,0.453,0.481,1.202,0.027,1.671c-0.196,0.203-19.59,20.82-12.111,61.09     c0.119,0.643-0.305,1.26-0.948,1.378C118.593,308.553,118.52,308.56,118.448,308.56z"/>
		</g>
		<g>
			<path style="fill:#241726;" d="M339.151,294.36c-0.579,0-1.084-0.423-1.17-1.012c-4.616-31.727-22.548-49.439-22.729-49.615     c-0.468-0.455-0.481-1.204-0.025-1.673c0.455-0.472,1.204-0.481,1.672-0.028c0.186,0.18,18.687,18.407,23.424,50.974     c0.095,0.647-0.354,1.248-1.001,1.343C339.264,294.355,339.208,294.36,339.151,294.36z"/>
		</g>
		<g>
			<path style="fill:#E17B8D;" d="M139.751,321.578c0,0-54.436,11.834-35.502,59.17s167.12,70.812,198.021,82.049     c8.678,3.156,39.446-30.768,41.024-40.235C350.968,376.515,187.086,297.91,139.751,321.578z"/>
		</g>
		<g>
			<path style="fill:#E17B8D;" d="M189.783,267.148c0,0-55.52,4.563-42.984,53.979c12.536,49.417,141.74,83.293,167.713,103.457     c25.972,20.163,58.189-29.308,52.933-50.364C356.138,328.93,245.073,266.55,189.783,267.148z"/>
		</g>
		<g>
			<path style="fill:#241726;" d="M334.616,425.321c-0.131,0-0.263-0.021-0.394-0.067c-26.404-8.097-179.477-69.577-185.329-102.488     c-0.221-0.615,0.099-1.294,0.714-1.514c0.614-0.22,1.293,0.097,1.514,0.714c14.629,40.811,182.199,100.459,183.889,101.055     c0.616,0.22,0.94,0.895,0.721,1.512C335.56,425.018,335.104,425.321,334.616,425.321z"/>
		</g>
		<g>
			<path style="fill:#241726;" d="M335.009,414.474c-0.591,0-1.101-0.441-1.174-1.04c-0.077-0.65,0.383-1.237,1.029-1.317     c0.231-0.03,18.747-2.864,24.421-37.478c0.106-0.645,0.712-1.093,1.36-0.975c0.645,0.104,1.082,0.714,0.977,1.359     c-5.992,36.549-25.636,39.343-26.469,39.443C335.104,414.472,335.057,414.474,335.009,414.474z"/>
		</g>
		<g>
			<path style="fill:#241726;" d="M297.143,460.626c-0.378,0-0.748-0.18-0.978-0.515c-0.369-0.539-0.231-1.276,0.307-1.643     c0.217-0.15,21.715-14.982,28.896-28.947c0.3-0.58,1.01-0.814,1.594-0.511c0.581,0.298,0.81,1.012,0.512,1.592     c-7.457,14.501-28.761,29.199-29.663,29.816C297.606,460.559,297.373,460.626,297.143,460.626z"/>
		</g>
		<g>
			<path style="fill:#241726;" d="M352.17,365.955c-0.32,0-0.639-0.129-0.873-0.384c-57.102-62.348-147.658-89.337-148.567-89.603     c-0.628-0.183-0.988-0.839-0.804-1.468c0.184-0.626,0.839-0.982,1.468-0.802c0.914,0.266,92.105,27.445,149.648,90.273     c0.441,0.483,0.409,1.232-0.073,1.673C352.742,365.853,352.455,365.955,352.17,365.955z"/>
		</g>
		<g>
			<path style="fill:#241726;" d="M233.239,216.256c-0.281,0-0.563-0.099-0.788-0.3c-0.488-0.437-0.529-1.183-0.095-1.671     c25.249-28.249,41.681-17.816,42.366-17.356c0.544,0.363,0.691,1.098,0.328,1.641c-0.362,0.543-1.094,0.693-1.638,0.331     c-0.21-0.132-15.564-9.592-39.291,16.96C233.887,216.122,233.563,216.256,233.239,216.256z"/>
		</g>
		<g>
			<path style="fill:#241726;" d="M202.472,216.847c-0.35,0-0.696-0.155-0.929-0.448c-19.21-24.299-34.589-17.152-35.233-16.833     c-0.586,0.28-1.294,0.046-1.583-0.536c-0.289-0.585-0.053-1.292,0.529-1.583c0.713-0.354,17.665-8.413,38.142,17.483     c0.406,0.513,0.319,1.257-0.194,1.664C202.987,216.764,202.728,216.847,202.472,216.847z"/>
		</g>
		<g>
			<path style="fill:#FBFCFF;" d="M228.506,70.698c-0.104,0-0.208-0.014-0.312-0.042c-0.631-0.171-1.003-0.823-0.831-1.454     c5.029-18.442-6.17-26.781-6.648-27.128c-0.529-0.381-0.651-1.121-0.27-1.65c0.38-0.532,1.116-0.652,1.648-0.275     c0.132,0.095,13.033,9.587,7.555,29.677C229.504,70.352,229.026,70.698,228.506,70.698z"/>
		</g>
		<g>
			<path style="fill:#FBFCFF;" d="M244.482,71.29c-0.028,0-0.055,0-0.084-0.002c-0.652-0.046-1.143-0.613-1.097-1.264     c1.256-17.91-2.403-25.877-5.694-29.409c-2.768-2.968-5.525-3.051-5.552-3.051c-1.535,0.023-1.536-2.39,0-2.367     c0.152,0,3.777,0.044,7.283,3.804c3.611,3.874,7.64,12.428,6.323,31.189C245.618,70.814,245.098,71.29,244.482,71.29z"/>
		</g>
		<g>
			<path style="fill:#FBFCFF;" d="M255.131,74.84c-0.148,0-0.298-0.028-0.444-0.086c-0.606-0.245-0.898-0.936-0.653-1.542     c10.67-26.395-6.95-35.4-7.706-35.77c-1.388-0.652-0.329-2.817,1.035-2.129c0.205,0.099,20.388,10.281,8.864,38.786     C256.042,74.561,255.599,74.84,255.131,74.84z"/>
		</g>
		<g>
			<path style="fill:#FBFCFF;" d="M131.466,187.854c-0.587,0-1.096-0.437-1.173-1.033c-0.083-0.647,0.376-1.241,1.024-1.324     c16.682-2.138,17.031-16.318,17.312-27.71c0.088-3.557,0.164-6.631,0.749-8.968c2.578-10.318,20.781-9.079,21.555-9.021     c0.652,0.049,1.141,0.617,1.092,1.269c-0.05,0.652-0.633,1.135-1.268,1.093c-0.172-0.023-16.987-1.156-19.085,7.232     c-2.199,13.849,2.959,34.904-20.055,38.453C131.566,187.852,131.515,187.854,131.466,187.854z"/>
		</g>
		<g>
			<path style="fill:#FBFCFF;" d="M162.236,174.837c-0.012,0-0.022,0-0.034,0c-0.653-0.018-1.168-0.562-1.151-1.216     c0.492-18.13,11.973-27.114,12.461-27.488c0.517-0.395,1.259-0.298,1.657,0.222c0.398,0.518,0.299,1.26-0.218,1.657     c-0.11,0.086-11.075,8.718-11.533,25.674C163.401,174.329,162.874,174.837,162.236,174.837z"/>
		</g>
		<g>
			<g>
				<path style="fill:#FFFFFF;" d="M199.392,162.825c0,0,16.485,28.215,23.459,23.459c6.974-4.755,12.681-26.312,15.534-25.044      c2.853,1.268,12.047,5.389,14.583,9.511s-16.485,29.483-19.655,29.483s-11.413-10.145-11.413-10.145      s-7.925,12.681-11.413,14.266s-22.508-22.191-24.41-27.898C184.175,170.75,199.392,162.825,199.392,162.825z"/>
			</g>
			<g>
				<path style="fill:#241726;" d="M210.106,205.615c-5.346,0-23.354-23.393-25.151-28.783c-2.16-6.476,12.242-14.196,13.891-15.056      c0.562-0.291,1.25-0.092,1.568,0.453c5.544,8.942,15.977,25.189,21.77,23.076c3.51-2.392,6.868-9.802,9.567-15.756      c3.365-6.95,4.154-10.071,7.115-9.391c8.314,3.7,13.257,6.962,15.109,9.973c0.617,1.001,1.019,3.079-2.584,9.527      c-4.054,7.258-14.716,21.756-18.079,21.756c-3.002,0-8.548-6.086-11.286-9.322c-2.254,3.483-7.945,11.926-11.048,13.339      C210.713,205.552,210.419,205.615,210.106,205.615z M210.106,203.248v1.183V203.248L210.106,203.248L210.106,203.248z       M198.954,164.404c-5.792,3.199-12.785,8.584-11.754,11.679c2.024,6.067,19.648,26.985,22.866,27.163      c2.341-1.165,7.869-9.044,10.832-13.785c0.202-0.326,0.549-0.532,0.93-0.555c0.383-0.044,0.75,0.139,0.992,0.435      c3.794,4.669,8.885,9.708,10.493,9.708c2.077-0.573,14.551-15.925,18.005-24.609c0.967-2.429,0.646-3.062,0.643-3.069      c-1.071-1.74-4.338-4.699-13.799-8.936c-0.943,0.786-2.771,4.819-4.255,8.092c-2.968,6.548-6.331,13.967-10.388,16.734      C215.069,191.866,202.238,169.257,198.954,164.404z"/>
			</g>
		</g>
		<g>
			<path style="fill:#241726;" d="M314.677,236.602c-0.686,0-1.336-0.09-1.933-0.289c-0.619-0.208-0.955-0.878-0.748-1.498     c0.206-0.617,0.871-0.959,1.497-0.749c3.881,1.304,12.472-4.549,15.459-6.906c0.515-0.404,1.26-0.317,1.663,0.196     c0.404,0.513,0.317,1.257-0.195,1.662C329.341,229.869,320.624,236.602,314.677,236.602z"/>
		</g>
		<g>
			<path style="fill:#241726;" d="M118.448,242.882c-0.623,0-1.145-0.488-1.18-1.119c-0.037-0.652,0.463-1.211,1.115-1.246     c0.105-0.007,10.593-0.599,15.163-1.743c0.631-0.157,1.276,0.227,1.434,0.862c0.159,0.633-0.227,1.276-0.861,1.435     c-4.787,1.197-15.166,1.784-15.605,1.807C118.492,242.882,118.47,242.882,118.448,242.882z"/>
		</g>
		<g>
			<path style="fill:#FBFCFF;" d="M179.189,137.56c-0.458,0-0.892-0.266-1.086-0.712c-2.701-6.213,0.025-17.439,0.143-17.915     c0.157-0.633,0.802-1.017,1.432-0.864c0.634,0.157,1.023,0.797,0.866,1.433c-0.027,0.109-2.652,10.926-0.27,16.403     c0.261,0.599-0.014,1.297-0.614,1.558C179.505,137.528,179.346,137.56,179.189,137.56z"/>
		</g>
		<g>
			<path style="fill:#FBFCFF;" d="M184.721,141.11c-0.409,0-0.808-0.213-1.027-0.594c-0.325-0.566-0.128-1.29,0.438-1.616     c0.076-0.044,7.63-4.484,7.1-11.908c-0.047-0.652,0.444-1.218,1.096-1.264c0.656-0.062,1.218,0.446,1.264,1.098     c0.638,8.922-7.92,13.919-8.285,14.129C185.122,141.06,184.921,141.11,184.721,141.11z"/>
		</g>
		<g>
			<path style="fill:#FBFCFF;" d="M181.168,78.391c-0.536,0-1.022-0.368-1.15-0.911c-5.463-23.065,11.031-33.144,11.198-33.241     c0.563-0.335,1.284-0.15,1.619,0.411c0.334,0.562,0.149,1.287-0.41,1.623c-0.622,0.372-15.155,9.338-10.105,30.662     c0.151,0.636-0.243,1.274-0.878,1.424C181.351,78.381,181.258,78.391,181.168,78.391z"/>
		</g>
		<g>
			<path style="fill:#FBFCFF;" d="M283.534,81.941c-0.028,0-0.054,0-0.082-0.002c-0.653-0.046-1.144-0.61-1.1-1.262     c1.118-16.205-8.154-21.308-8.248-21.359c-0.578-0.305-0.799-1.022-0.492-1.599c0.306-0.576,1.019-0.802,1.599-0.49     c0.439,0.231,10.724,5.887,9.503,23.61C284.67,81.462,284.15,81.941,283.534,81.941z"/>
		</g>
		<g>
			<g>
				<path style="fill:#241726;" d="M249.103,373.853c-0.017,0-0.036,0-0.053,0c-0.28-0.014-6.866-0.349-8.618-4.477      c-0.255-0.601,0.025-1.297,0.628-1.551c0.595-0.257,1.295,0.023,1.552,0.626c0.974,2.297,5.053,2.97,6.542,3.035      c0.653,0.03,1.159,0.582,1.13,1.234C250.257,373.356,249.733,373.853,249.103,373.853z"/>
			</g>
			<g>
				<path style="fill:#241726;" d="M258.9,370.991c-0.017,0-0.035,0-0.053,0c-0.279-0.014-6.866-0.347-8.618-4.475      c-0.255-0.601,0.025-1.297,0.628-1.551c0.594-0.257,1.296,0.025,1.552,0.626c0.97,2.286,5.053,2.965,6.543,3.035      c0.652,0.03,1.158,0.582,1.128,1.234C260.052,370.497,259.529,370.991,258.9,370.991z"/>
			</g>
			<g>
				<path style="fill:#241726;" d="M262.837,381.242c-0.017,0-0.036,0-0.053,0c-0.28-0.014-6.866-0.349-8.617-4.477      c-0.255-0.601,0.027-1.297,0.628-1.551c0.602-0.259,1.295,0.023,1.552,0.626c0.974,2.297,5.051,2.97,6.541,3.035      c0.653,0.03,1.159,0.582,1.13,1.234C263.991,380.745,263.467,381.242,262.837,381.242z"/>
			</g>
			<g>
				<path style="fill:#241726;" d="M246.064,364.009c-0.017,0-0.035,0-0.053,0c-0.279-0.014-6.866-0.347-8.618-4.475      c-0.255-0.601,0.025-1.297,0.628-1.551c0.597-0.257,1.295,0.025,1.552,0.626c0.97,2.286,5.053,2.965,6.543,3.035      c0.652,0.03,1.158,0.582,1.128,1.234C247.216,363.514,246.693,364.009,246.064,364.009z"/>
			</g>
			<g>
				<path style="fill:#241726;" d="M234.014,357.65c-0.054,0-0.11-0.005-0.165-0.012c-0.274-0.039-6.717-0.987-8.065-5.318      c-0.194-0.624,0.155-1.287,0.779-1.482c0.621-0.194,1.286,0.153,1.482,0.779c0.892,2.866,6.081,3.67,6.133,3.677      c0.647,0.09,1.099,0.689,1.008,1.336C235.102,357.223,234.595,357.65,234.014,357.65z"/>
			</g>
			<g>
				<path style="fill:#241726;" d="M235.133,367.48c-0.105,0-0.214-0.014-0.32-0.044c-0.258-0.072-6.327-1.831-7.166-6.43      c-0.118-0.643,0.309-1.26,0.951-1.378c0.648-0.099,1.261,0.31,1.376,0.952c0.574,3.146,5.432,4.563,5.481,4.576      c0.628,0.18,0.993,0.834,0.815,1.461C236.123,367.141,235.649,367.48,235.133,367.48z"/>
			</g>
			<g>
				<path style="fill:#241726;" d="M224.244,358.351c-0.106,0-0.215-0.014-0.321-0.044c-0.259-0.074-6.328-1.833-7.166-6.43      c-0.118-0.643,0.309-1.26,0.951-1.378c0.646-0.104,1.26,0.31,1.376,0.952c0.567,3.111,5.43,4.563,5.48,4.576      c0.629,0.178,0.995,0.832,0.818,1.461C225.236,358.011,224.761,358.351,224.244,358.351z"/>
			</g>
		</g>
		<g>
			<g>
				<path style="fill:#241726;" d="M210.082,428.682c-2.18,0-5.132-0.448-6.714-2.607c-0.386-0.529-0.272-1.269,0.255-1.655      c0.525-0.391,1.265-0.27,1.654,0.254c1.473,2.013,5.596,1.733,7.063,1.458c1.506-0.301,1.951,2.062,0.439,2.325      C212.669,428.478,211.55,428.682,210.082,428.682z"/>
			</g>
			<g>
				<path style="fill:#241726;" d="M218.964,423.657c-2.178,0-5.131-0.448-6.714-2.607c-0.386-0.527-0.272-1.269,0.255-1.655      c0.523-0.388,1.267-0.275,1.654,0.254c1.476,2.013,5.598,1.738,7.063,1.458c1.506-0.304,1.951,2.063,0.439,2.325      C221.551,423.454,220.433,423.657,218.964,423.657z"/>
			</g>
			<g>
				<path style="fill:#241726;" d="M225.142,432.733c-2.18,0-5.132-0.448-6.714-2.607c-0.386-0.529-0.272-1.269,0.255-1.655      c0.525-0.388,1.267-0.273,1.654,0.254c1.475,2.013,5.593,1.736,7.063,1.458c0.646-0.12,1.262,0.3,1.382,0.943      c0.121,0.643-0.3,1.262-0.943,1.382C227.73,432.53,226.611,432.733,225.142,432.733z"/>
			</g>
			<g>
				<path style="fill:#241726;" d="M204.868,419.797c-2.178,0-5.129-0.451-6.711-2.612c-0.386-0.527-0.272-1.267,0.255-1.653      c0.526-0.388,1.27-0.27,1.654,0.257c1.473,2.011,5.598,1.733,7.062,1.456c0.654-0.116,1.262,0.3,1.383,0.943      c0.121,0.64-0.3,1.26-0.942,1.382C207.459,419.591,206.34,419.797,204.868,419.797z"/>
			</g>
			<g>
				<path style="fill:#241726;" d="M193.207,416.194c-1.996,0-6.234-0.372-8.001-3.372c-0.332-0.564-0.144-1.29,0.418-1.62      c0.56-0.335,1.286-0.146,1.62,0.418c1.524,2.589,6.758,2.184,6.81,2.177c0.671-0.035,1.227,0.423,1.287,1.07      c0.059,0.652-0.419,1.227-1.07,1.287C194.207,416.159,193.809,416.194,193.207,416.194z"/>
			</g>
			<g>
				<path style="fill:#241726;" d="M197.505,425.471c-0.017,0-0.035,0-0.052,0c-0.268-0.012-6.579-0.335-8.449-4.62      c-0.635-1.399,1.578-2.361,2.17-0.948c1.278,2.931,6.332,3.199,6.383,3.203c0.652,0.03,1.157,0.582,1.128,1.234      C198.656,424.977,198.133,425.471,197.505,425.471z"/>
			</g>
			<g>
				<path style="fill:#241726;" d="M184.814,419.074c-0.017,0-0.035,0-0.052,0c-0.268-0.012-6.579-0.335-8.448-4.62      c-0.261-0.601,0.013-1.297,0.613-1.558c0.601-0.261,1.298,0.014,1.558,0.61c1.264,2.901,6.328,3.201,6.379,3.201      c0.653,0.03,1.159,0.582,1.131,1.234C185.968,418.577,185.444,419.074,184.814,419.074z"/>
			</g>
		</g>
		<g>
			<path style="fill:#FBFCFF;" d="M172.2,129.97c-0.42,0-0.825-0.222-1.04-0.617c-4.16-7.63-4.208-23.599-4.208-24.273     c-0.023-1.533,2.389-1.538,2.367,0c0,0.159,0.047,16.04,3.919,23.141c0.313,0.573,0.102,1.292-0.473,1.606     C172.586,129.924,172.392,129.97,172.2,129.97z"/>
		</g>
		<g>
			<path style="fill:#FBFCFF;" d="M178.295,166.546c-0.27,0-0.542-0.092-0.764-0.28c-0.499-0.423-0.562-1.17-0.14-1.669     c6.758-7.986,2.15-15.213,1.95-15.516c-0.358-0.545-0.209-1.28,0.335-1.639c0.544-0.361,1.275-0.215,1.636,0.328     c0.059,0.088,5.821,8.979-2.114,18.356C178.964,166.403,178.63,166.546,178.295,166.546z"/>
		</g>
		<g>
			<path style="fill:#241726;" d="M255.774,268.05L255.774,268.05c-0.678,0-1.111-0.086-1.449-0.289     c-1.644-0.987-3.826-14.559-6.486-40.337c-0.058-0.559,0.287-1.084,0.823-1.25c1.92-0.278,31.414-10.541,36.861-9.354     c0.61,0.367,1.053,1.139,1.774,4.348c1.509,6.707,5.753,36.493,4.519,38.347C291.062,260.642,262.9,268.05,255.774,268.05z      M255.633,265.681c5.504,0.048,30.453-6.08,34.113-7.563c0.149-4.53-3.839-35.733-5.546-39.265     c-3.966,0.187-24.945,6.492-33.906,9.289C252.024,244.738,254.407,262.877,255.633,265.681z"/>
		</g>
		<g>
			<path style="fill:#E38B72;" d="M316.076,242.882c0,0-8.875-21.893-26.429-20.118c-14.178,1.434,3.156,8.284,3.156,8.284     s-9.862-5.917-14.595-1.972s15.384,9.862,15.384,9.862s-16.962-6.706-19.723-2.367c-2.761,4.339,27.052,19.336,30.208,21.702     S318.048,249.982,316.076,242.882z"/>
		</g>
		<g>
			<path style="fill:#241726;" d="M298.718,233.415c-0.171,0-0.346-0.037-0.511-0.116c-4.531-2.177-9.734-4.5-10.596-4.62     c-1.543,0.006-1.465-2.404,0.064-2.364c1.201,0,6.948,2.637,11.556,4.849c0.589,0.284,0.838,0.992,0.555,1.581     C299.583,233.168,299.16,233.415,298.718,233.415z"/>
		</g>
		<g>
			<path style="fill:#241726;" d="M297.141,240.515c-0.162,0-0.326-0.032-0.483-0.104c-4.565-2.046-11.832-4.602-13.695-3.918     c-0.61,0.233-1.294-0.081-1.524-0.691c-0.229-0.613,0.081-1.294,0.692-1.523c3.428-1.294,13.508,3.083,15.495,3.973     c0.596,0.266,0.863,0.966,0.595,1.562C298.025,240.254,297.594,240.515,297.141,240.515z"/>
		</g>
		<g>
			<path style="fill:#241726;" d="M186.297,227.302c-0.147,0-0.296-0.028-0.44-0.086c-1.571-0.629-15.826-4.741-21.186-6.273     c-0.629-0.178-0.993-0.834-0.814-1.463c0.18-0.631,0.837-0.998,1.463-0.811c0.792,0.227,19.412,5.547,21.417,6.351     c0.607,0.243,0.901,0.931,0.658,1.539C187.21,227.022,186.766,227.302,186.297,227.302z"/>
		</g>
		<g>
			<path style="fill:#241726;" d="M190.241,234.795c-0.238,0-0.478-0.072-0.686-0.22c-1.863-1.331-22.489-5.908-35.051-8.48     c-0.641-0.132-1.054-0.758-0.922-1.398c0.131-0.64,0.758-1.054,1.396-0.922c5.509,1.128,33.129,6.858,35.952,8.873     c0.532,0.381,0.655,1.119,0.275,1.65C190.975,234.622,190.611,234.795,190.241,234.795z"/>
		</g>
		<g>
			<path style="fill:#241726;" d="M181.96,239.924c-0.077,0-0.155-0.007-0.233-0.023c-2.007-0.402-20.624-6.1-21.415-6.34     c-0.625-0.192-0.977-0.853-0.785-1.479c0.191-0.624,0.847-0.978,1.478-0.786c5.36,1.641,19.616,5.97,21.187,6.284     c0.641,0.129,1.056,0.751,0.928,1.394C183.007,239.535,182.512,239.924,181.96,239.924z"/>
		</g>
		<g>
			<path style="fill:#241726;" d="M260.455,275.03c-0.558,0-1.055-0.398-1.161-0.966c-0.121-0.643,0.302-1.26,0.944-1.38     c10.897-2.043,32.069-6.07,34.212-6.68c0.624-0.183,1.283,0.183,1.463,0.811c0.179,0.629-0.185,1.285-0.814,1.463     c-2.782,0.795-33.134,6.49-34.425,6.731C260.601,275.023,260.527,275.03,260.455,275.03z"/>
		</g>
		<g>
			<path style="fill:#241726;" d="M274.069,279.748l-0.402-2.334c0,0,11.444-1.972,13.812-2.367     c0.645-0.109,1.255,0.326,1.363,0.973c0.107,0.645-0.328,1.253-0.972,1.361C285.504,277.776,274.069,279.748,274.069,279.748z"/>
		</g>
	</g>
	<g>
		<path style="fill:#241726;" d="M383.202,510.324c-0.942,0-1.888-0.06-2.813-0.18c-0.648-0.086-1.105-0.68-1.02-1.327    c0.083-0.649,0.673-1.114,1.326-1.022c1.442,0.192,2.908,0.215,4.457,0.069c0.663-0.049,1.227,0.418,1.287,1.07    c0.059,0.652-0.419,1.227-1.07,1.287C384.629,510.29,383.906,510.324,383.202,510.324z M389.903,509.351    c-0.519,0-0.995-0.344-1.139-0.869c-0.174-0.629,0.195-1.28,0.825-1.456c1.384-0.381,2.833-0.897,4.304-1.53    c0.601-0.266,1.295,0.018,1.554,0.617c0.259,0.601-0.017,1.297-0.618,1.556c-1.569,0.677-3.12,1.23-4.609,1.641    C390.113,509.337,390.008,509.351,389.903,509.351z M375.984,508.956c-0.148,0-0.297-0.028-0.441-0.086    c-1.515-0.61-2.989-1.424-4.378-2.42c-0.53-0.381-0.653-1.121-0.272-1.65c0.38-0.532,1.119-0.654,1.651-0.273    c1.235,0.885,2.541,1.609,3.881,2.147c0.607,0.243,0.9,0.934,0.656,1.539C376.896,508.676,376.452,508.956,375.984,508.956z     M398.603,505.672c-0.416,0-0.819-0.22-1.035-0.608c-0.318-0.571-0.112-1.292,0.459-1.609c1.378-0.767,2.68-1.595,3.871-2.459    c1.227-0.924,2.647,1.031,1.391,1.914c-1.269,0.922-2.652,1.801-4.112,2.612C398.994,505.623,398.797,505.672,398.603,505.672z     M368.326,503.531c-0.318,0-0.636-0.127-0.869-0.381c-1.075-1.163-2.094-2.466-3.029-3.878c-0.362-0.545-0.213-1.278,0.332-1.641    c0.544-0.358,1.278-0.215,1.64,0.333c0.867,1.306,1.807,2.512,2.796,3.583c0.444,0.478,0.414,1.227-0.066,1.671    C368.901,503.427,368.613,503.531,368.326,503.531z M406.214,500.094c-0.307,0-0.615-0.12-0.847-0.356    c-0.456-0.469-0.447-1.218,0.02-1.673c1.112-1.086,2.102-2.237,2.945-3.423c0.378-0.532,1.116-0.659,1.65-0.277    c0.533,0.379,0.658,1.116,0.28,1.65c-0.925,1.299-2.009,2.559-3.22,3.742C406.81,499.983,406.512,500.094,406.214,500.094z     M363.069,495.684c-0.438,0-0.86-0.245-1.064-0.663c-0.906-1.856-1.52-3.481-1.874-4.519c-0.211-0.619,0.118-1.292,0.736-1.502    c0.615-0.213,1.291,0.118,1.504,0.735c0.333,0.975,0.909,2.501,1.761,4.246c0.287,0.587,0.044,1.297-0.544,1.583    C363.42,495.645,363.243,495.684,363.069,495.684z M411.625,492.405c-0.156,0-0.315-0.03-0.468-0.097    c-0.601-0.259-0.876-0.957-0.617-1.556c0.6-1.387,1.027-2.817,1.274-4.253c0.11-0.645,0.719-1.077,1.365-0.968    c0.645,0.111,1.078,0.721,0.967,1.366c-0.276,1.623-0.759,3.236-1.433,4.794C412.519,492.139,412.083,492.405,411.625,492.405z     M416.667,483.317c-1.101,0-2.196-0.058-3.26-0.173c-0.042,0.007-0.084,0.014-0.127,0.018c-0.336,0.025-0.644-0.079-0.878-0.28    c-0.346-0.243-0.55-0.666-0.493-1.116c0.007-0.055,0.017-0.111,0.032-0.164c-0.162-1.32-0.483-2.584-0.958-3.765    c-0.244-0.606,0.05-1.297,0.656-1.539c0.603-0.245,1.294,0.049,1.539,0.656c0.495,1.23,0.846,2.535,1.048,3.892    c1.151,0.102,2.317,0.127,3.535,0.083c0.668,0.014,1.202,0.488,1.225,1.142c0.024,0.652-0.487,1.2-1.139,1.225    C417.447,483.31,417.054,483.317,416.667,483.317z M422.507,482.799c-0.565,0-1.065-0.407-1.165-0.982    c-0.111-0.643,0.32-1.255,0.964-1.368c1.463-0.252,2.971-0.601,4.483-1.038c0.631-0.185,1.284,0.183,1.465,0.809    c0.181,0.629-0.181,1.285-0.809,1.465c-1.595,0.46-3.188,0.83-4.735,1.098C422.643,482.794,422.575,482.799,422.507,482.799z     M408.473,482.055c-0.126,0-0.253-0.021-0.379-0.062c-1.675-0.566-3.199-1.304-4.528-2.189c-0.544-0.363-0.691-1.098-0.328-1.641    c0.362-0.545,1.096-0.691,1.641-0.328c1.157,0.772,2.494,1.417,3.973,1.916c0.619,0.208,0.951,0.881,0.742,1.5    C409.428,481.743,408.967,482.055,408.473,482.055z M431.596,480.201c-0.475,0-0.923-0.289-1.104-0.758    c-0.236-0.61,0.068-1.294,0.678-1.53l0.279-0.109c1.394-0.559,2.681-1.176,3.825-1.835c0.564-0.333,1.289-0.134,1.617,0.432    c0.327,0.566,0.133,1.29-0.433,1.616c-1.241,0.719-2.631,1.384-4.13,1.983l-0.306,0.122    C431.881,480.176,431.738,480.201,431.596,480.201z M400.89,476.695c-0.402,0-0.794-0.206-1.016-0.573    c-1.22-1.957-1.361-4.461,0.552-5.838c0.527-0.388,1.268-0.263,1.651,0.266c0.383,0.529,0.263,1.271-0.267,1.653    c-0.857,0.69-0.44,1.745,0.092,2.7c0.336,0.562,0.155,1.287-0.406,1.625C401.307,476.642,401.097,476.695,400.89,476.695z     M439.692,475.407c-0.319,0-0.637-0.127-0.87-0.381c-0.443-0.481-0.413-1.23,0.068-1.671c1.128-1.04,2.047-2.18,2.73-3.384    c0.324-0.569,1.044-0.772,1.614-0.444c0.567,0.321,0.767,1.045,0.445,1.613c-0.806,1.417-1.877,2.748-3.185,3.952    C440.266,475.303,439.979,475.407,439.692,475.407z M409.607,474.571c-0.319,0-0.638-0.129-0.871-0.381    c-1.008-1.098-2.177-1.865-3.379-2.219c-0.628-0.185-0.986-0.841-0.801-1.47c0.185-0.626,0.84-0.982,1.469-0.8    c1.614,0.476,3.155,1.472,4.454,2.885c0.443,0.481,0.41,1.23-0.07,1.673C410.181,474.467,409.893,474.571,409.607,474.571z     M444.213,467.299c-0.064,0-0.127-0.005-0.192-0.016c-0.645-0.104-1.083-0.712-0.978-1.357c0.233-1.43,0.22-2.893,0.008-4.355    c-0.092-0.647,0.356-1.246,1.003-1.341c0.639-0.086,1.247,0.358,1.341,1.003c0.245,1.698,0.256,3.408-0.015,5.071    C445.285,466.888,444.783,467.299,444.213,467.299z M443.002,458.026c-0.476,0-0.925-0.289-1.105-0.76    c-0.517-1.345-1.186-2.716-1.988-4.073c-0.333-0.564-0.147-1.29,0.416-1.623c0.56-0.328,1.289-0.143,1.62,0.416    c0.87,1.472,1.597,2.963,2.161,4.433c0.235,0.61-0.07,1.294-0.681,1.528C443.286,458.001,443.143,458.026,443.002,458.026z     M438.244,449.872c-0.349,0-0.695-0.153-0.928-0.448c-0.779-0.98-1.605-1.916-2.463-2.787c-0.734,0.095-1.454,0.148-2.156,0.162    c-0.692-0.037-1.193-0.508-1.204-1.163c-0.012-0.652,0.508-1.193,1.163-1.204c0.518-0.009,1.049-0.044,1.591-0.106    c0.369-0.354,0.913-0.425,1.352-0.201c0.481-0.09,0.967-0.196,1.458-0.324c0.626-0.162,1.278,0.22,1.441,0.851    c0.163,0.633-0.218,1.278-0.852,1.442c-0.014,0.002-0.029,0.007-0.043,0.012c0.539,0.594,1.061,1.213,1.566,1.849    c0.407,0.511,0.321,1.255-0.191,1.662C438.761,449.789,438.502,449.872,438.244,449.872z M428.012,446.144    c-0.125,0-0.251-0.018-0.376-0.06c-2.114-0.707-3.734-1.898-4.445-3.264c-0.302-0.578-0.076-1.294,0.503-1.595    c0.579-0.298,1.294-0.079,1.596,0.504c0.312,0.599,1.311,1.512,3.097,2.108c0.619,0.208,0.955,0.878,0.747,1.498    C428.969,445.832,428.507,446.144,428.012,446.144z M441.809,444.551c-0.454,0-0.886-0.261-1.083-0.703    c-0.265-0.599,0.005-1.297,0.601-1.562c1.322-0.587,2.686-1.304,4.053-2.133c1.303-0.81,2.551,1.246,1.227,2.025    c-1.454,0.881-2.906,1.646-4.319,2.272C442.133,444.519,441.969,444.551,441.809,444.551z M431.412,443.354    c-0.229,0-0.46-0.067-0.665-0.206c-1.426-0.968-2.76-1.599-3.751-1.775c-1.469-0.212-1.203-2.548,0.287-2.348    c0.05,0.005,0.157,0.023,0.206,0.035c1.271,0.222,2.843,0.945,4.59,2.133c0.54,0.365,0.681,1.102,0.313,1.643    C432.163,443.174,431.791,443.354,431.412,443.354z M449.852,439.619c-0.332,0-0.662-0.139-0.896-0.411    c-0.428-0.495-0.372-1.241,0.122-1.669c1.146-0.987,2.152-2.089,2.99-3.273c0.377-0.534,1.114-0.656,1.65-0.282    c0.533,0.379,0.66,1.116,0.282,1.65c-0.949,1.341-2.085,2.584-3.376,3.698C450.4,439.524,450.125,439.619,449.852,439.619z     M455.247,431.966c-0.139,0-0.281-0.025-0.418-0.076c-0.611-0.231-0.92-0.913-0.689-1.525c0.508-1.348,0.87-2.801,1.075-4.322    c0.087-0.647,0.675-1.126,1.33-1.015c0.648,0.086,1.103,0.682,1.016,1.329c-0.229,1.699-0.634,3.328-1.207,4.845    C456.175,431.675,455.726,431.966,455.247,431.966z M456.574,422.661c-0.628,0-1.151-0.495-1.181-1.128    c-0.068-1.449-0.252-2.977-0.544-4.537c-0.121-0.64,0.302-1.26,0.944-1.38c0.654-0.125,1.262,0.305,1.381,0.945    c0.313,1.666,0.51,3.301,0.584,4.861c0.031,0.652-0.474,1.207-1.126,1.237C456.612,422.661,456.594,422.661,456.574,422.661z     M454.874,413.362c-0.507,0-0.978-0.328-1.133-0.839c-0.436-1.435-0.955-2.903-1.543-4.366c-0.244-0.606,0.05-1.297,0.656-1.539    c0.602-0.243,1.296,0.049,1.539,0.656c0.614,1.525,1.156,3.06,1.612,4.56c0.19,0.626-0.163,1.287-0.788,1.477    C455.103,413.346,454.987,413.362,454.874,413.362z M451.357,404.577c-0.436,0-0.854-0.24-1.061-0.656    c-1.232-2.482-2.217-4.031-2.227-4.045c-0.351-0.55-0.191-1.283,0.359-1.634c0.552-0.356,1.283-0.194,1.634,0.358    c0.043,0.067,1.059,1.66,2.353,4.267c0.291,0.587,0.052,1.297-0.534,1.588C451.713,404.538,451.534,404.577,451.357,404.577z"/>
	</g>
	<g>
		<path style="fill:#241726;" d="M66.38,73.46c-0.426,0-0.839-0.231-1.049-0.638c-0.04-0.076-0.99-1.916-1.752-4.662    c-0.175-0.631,0.194-1.283,0.824-1.456c0.629-0.176,1.282,0.192,1.457,0.823c0.691,2.492,1.561,4.188,1.571,4.204    c0.3,0.58,0.074,1.294-0.506,1.595C66.751,73.417,66.564,73.46,66.38,73.46z M63.878,64.375c-0.611,0-1.13-0.472-1.179-1.091    c-0.135-1.644-0.065-3.446,0.235-5.022c0.121-0.643,0.742-1.063,1.381-0.945c0.643,0.12,1.067,0.737,0.946,1.38    c-0.263,1.374-0.321,2.963-0.202,4.403c0.051,0.652-0.436,1.22-1.087,1.271C63.941,64.372,63.909,64.375,63.878,64.375z     M100.777,60.677c-0.916,0-2.012-0.238-3.255-0.705c-0.205-0.076-0.41-0.162-0.611-0.259c-0.588-0.284-0.836-0.992-0.551-1.581    c0.284-0.585,0.995-0.837,1.58-0.55c0.134,0.065,0.27,0.123,0.41,0.173c2.013,0.753,2.719,0.633,3.094,0.435    c0.577-0.298,1.294-0.079,1.597,0.499c0.304,0.58,0.08,1.294-0.499,1.599C102.048,60.545,101.454,60.677,100.777,60.677z     M93.941,56.72c-0.379,0-0.751-0.183-0.98-0.52c-0.869-1.28-1.587-2.827-2.132-4.595c-0.192-0.624,0.158-1.287,0.782-1.479    c0.63-0.196,1.287,0.157,1.48,0.781c0.476,1.546,1.091,2.88,1.827,3.966c0.367,0.541,0.227,1.276-0.314,1.643    C94.401,56.653,94.17,56.72,93.941,56.72z M101.992,56.165c-0.417,0-0.822-0.222-1.038-0.612    c-0.614-1.112-1.556-2.288-2.724-3.398c-0.474-0.448-0.493-1.197-0.044-1.673c0.451-0.476,1.2-0.492,1.673-0.042    c1.343,1.274,2.437,2.646,3.168,3.971c0.315,0.571,0.107,1.292-0.466,1.606C102.381,56.119,102.185,56.165,101.992,56.165z     M65.697,55.229c-0.199,0-0.4-0.051-0.585-0.155c-0.567-0.324-0.766-1.047-0.443-1.613c0.83-1.458,1.922-2.783,3.244-3.938    c0.49-0.43,1.237-0.384,1.67,0.111c0.43,0.492,0.38,1.239-0.112,1.669c-1.123,0.982-2.047,2.103-2.745,3.328    C66.508,55.014,66.109,55.229,65.697,55.229z M95.28,49.622c-0.208,0-0.42-0.055-0.61-0.171c-1.084-0.654-2.226-1.213-3.403-1.671    c-0.038,0.009-0.076,0.016-0.117,0.021c-0.658,0.067-1.235-0.391-1.312-1.04c-0.154-1.322-0.232-2.711-0.232-4.128l0.007-0.758    c0.013-0.652,0.571-1.239,1.205-1.16c0.654,0.012,1.173,0.552,1.161,1.207l-0.007,0.712c0,0.998,0.042,1.981,0.122,2.931    c1.315,0.508,2.59,1.133,3.797,1.863c0.559,0.337,0.74,1.066,0.402,1.625C96.071,49.418,95.681,49.622,95.28,49.622z     M72.635,49.002c-0.436,0-0.854-0.24-1.061-0.656c-0.291-0.587-0.052-1.297,0.534-1.588c1.262-0.626,2.67-1.181,4.18-1.646    l0.424-0.127c0.636-0.185,1.285,0.178,1.467,0.807c0.183,0.629-0.178,1.285-0.805,1.468l-0.388,0.113    c-1.389,0.43-2.675,0.936-3.825,1.507C72.991,48.963,72.811,49.002,72.635,49.002z M86.411,46.522    c-0.05,0-0.101-0.002-0.151-0.009c-0.881-0.113-1.768-0.125-2.7-0.166c-0.582,0-1.172,0.025-1.77,0.079    c-0.64,0.053-1.224-0.423-1.282-1.075c-0.057-0.652,0.424-1.225,1.076-1.283c0.696-0.06,1.367-0.109,2.051-0.088    c0.982,0,1.968,0.062,2.925,0.185c0.648,0.083,1.107,0.677,1.024,1.324C87.507,46.088,86.998,46.522,86.411,46.522z     M91.168,38.361c-0.053,0-0.106-0.002-0.161-0.012c-0.648-0.088-1.101-0.684-1.014-1.331c0.217-1.595,0.528-3.201,0.923-4.775    c0.159-0.636,0.803-1.015,1.435-0.86c0.634,0.159,1.019,0.802,0.86,1.438c-0.373,1.488-0.668,3.007-0.873,4.516    C92.259,37.931,91.75,38.361,91.168,38.361z M139.762,33.331c-0.304,0-0.597-0.127-0.815-0.395    c-0.009-0.012-0.135-0.173-0.143-0.185c-0.957-1.276-1.795-2.64-2.488-4.056c-0.288-0.585-0.046-1.294,0.541-1.583    c0.591-0.284,1.295-0.046,1.583,0.543c0.63,1.283,1.389,2.519,2.257,3.677c0.387,0.515,0.348,1.322-0.161,1.717    C140.299,33.234,140.027,33.331,139.762,33.331z M143.695,32.945c-0.206,0-0.413-0.053-0.602-0.166    c-0.563-0.333-0.748-1.059-0.415-1.62c0.585-0.945,0.784-2.553,0.611-3.848c-0.076-0.647,0.389-1.237,1.038-1.313    c0.667-0.065,1.238,0.391,1.313,1.04c0.238,1.813-0.08,3.941-0.926,5.328C144.493,32.737,144.099,32.945,143.695,32.945z     M93.478,29.199c-0.14,0-0.281-0.025-0.418-0.076c-0.611-0.231-0.92-0.915-0.689-1.525c0.589-1.556,1.267-3.056,2.014-4.454    c0.307-0.578,1.029-0.793,1.601-0.488c0.577,0.31,0.795,1.026,0.487,1.602c-0.699,1.311-1.335,2.716-1.887,4.177    C94.406,28.908,93.955,29.199,93.478,29.199z M135.749,24.923c-0.53,0-1.012-0.358-1.148-0.897    c-0.414-1.662-0.629-3.333-0.636-4.967c-0.003-0.652,0.525-1.186,1.178-1.188c0.653-0.003,1.186,0.525,1.189,1.179    c0.007,1.445,0.196,2.926,0.566,4.403c0.157,0.633-0.228,1.276-0.862,1.435C135.94,24.911,135.843,24.923,135.749,24.923z     M142.956,23.904c-0.411,0-0.811-0.215-1.03-0.599c-0.683-1.2-1.596-2.355-2.713-3.432c-0.47-0.455-0.484-1.204-0.03-1.673    c0.455-0.474,1.204-0.481,1.673-0.032c1.28,1.237,2.332,2.57,3.127,3.969c0.324,0.569,0.125,1.29-0.444,1.613    C143.355,23.853,143.154,23.904,142.956,23.904z M97.953,20.883c-0.245,0-0.492-0.076-0.705-0.233    c-0.525-0.391-0.633-1.133-0.244-1.657c1.007-1.352,2.108-2.593,3.275-3.693c0.476-0.446,1.224-0.425,1.673,0.051    c0.447,0.476,0.425,1.225-0.051,1.673c-1.067,1.003-2.076,2.143-2.998,3.384C98.672,20.719,98.314,20.883,97.953,20.883z     M181.562,20.601c-0.589,0-1.1-0.441-1.174-1.04c-0.001-0.014-0.18-1.424-0.867-3.405c-0.214-0.619,0.113-1.292,0.732-1.507    c0.619-0.215,1.291,0.113,1.506,0.73c0.775,2.24,0.972,3.83,0.98,3.897c0.077,0.649-0.385,1.237-1.033,1.315    C181.658,20.596,181.61,20.601,181.562,20.601z M136.297,17.314c-0.216,0-0.435-0.06-0.631-0.183    c-1.202-0.76-2.556-1.472-4.027-2.117c-0.597-0.263-0.87-0.962-0.608-1.56c0.265-0.599,0.96-0.869,1.56-0.608    c0.725,0.319,1.425,0.654,2.096,1.001c0.465-1.569,1.151-3.053,2.043-4.41c0.361-0.548,1.097-0.696,1.639-0.34    c0.547,0.358,0.698,1.093,0.34,1.639c-0.799,1.216-1.405,2.547-1.803,3.962c-0.034,0.118-0.084,0.227-0.148,0.326    c0.058,0.035,0.116,0.072,0.172,0.106c0.552,0.349,0.718,1.082,0.369,1.634C137.074,17.12,136.69,17.314,136.297,17.314z     M104.84,14.478c-0.399,0-0.789-0.201-1.011-0.569c-0.341-0.557-0.164-1.285,0.394-1.625c1.428-0.871,2.948-1.579,4.515-2.103    c1.449-0.52,2.216,1.78,0.753,2.242c-1.402,0.472-2.76,1.102-4.037,1.881C105.262,14.423,105.051,14.478,104.84,14.478z     M127.684,13.461c-1.575-0.349-3.134-0.913-4.828-1.246c-0.638-0.143-1.039-0.777-0.896-1.415    c0.142-0.638,0.774-1.033,1.413-0.897c1.618,0.365,3.186,0.784,4.664,1.243c0.623,0.196,0.971,0.86,0.775,1.484    C128.655,13.138,128.188,13.461,127.684,13.461z M178.655,12.657c-0.403,0-0.797-0.206-1.018-0.578    c-0.778-1.308-1.68-2.505-2.685-3.562c-0.451-0.474-0.431-1.223,0.042-1.673c0.475-0.451,1.225-0.432,1.673,0.042    c1.126,1.186,2.137,2.524,3.004,3.982c0.334,0.562,0.149,1.29-0.413,1.623C179.068,12.604,178.86,12.657,178.655,12.657z     M113.726,11.492c-0.599,0-1.113-0.453-1.175-1.061c-0.068-0.649,0.403-1.232,1.054-1.299c1.572-0.164,3.22-0.183,4.952-0.028    c0.651,0.058,1.13,0.633,1.072,1.285c-0.059,0.652-0.632,1.114-1.285,1.072c-1.569-0.146-3.071-0.125-4.494,0.023    C113.808,11.49,113.767,11.492,113.726,11.492z M140.873,7.768c-0.34,0-0.676-0.146-0.911-0.425    c-0.418-0.504-0.35-1.248,0.153-1.666c1.234-1.029,2.655-1.935,4.219-2.695c0.592-0.284,1.297-0.039,1.581,0.55    c0.285,0.587,0.04,1.294-0.548,1.581c-1.394,0.675-2.651,1.477-3.739,2.381C141.408,7.678,141.14,7.768,140.873,7.768z     M172.173,5.875c-0.218,0-0.439-0.06-0.637-0.187c-1.228-0.786-2.574-1.442-3.997-1.946c-0.616-0.22-0.938-0.897-0.72-1.512    c0.218-0.617,0.89-0.941,1.512-0.721c1.594,0.566,3.103,1.301,4.482,2.187c0.551,0.351,0.711,1.084,0.358,1.634    C172.945,5.684,172.562,5.875,172.173,5.875z M149.279,3.596c-0.52,0-0.997-0.347-1.141-0.871c-0.172-0.631,0.2-1.283,0.831-1.454    c1.5-0.409,3.116-0.723,4.803-0.936c0.653-0.09,1.241,0.377,1.322,1.026c0.082,0.649-0.378,1.241-1.026,1.322    c-1.577,0.199-3.083,0.492-4.477,0.871C149.487,3.583,149.382,3.596,149.279,3.596z M163.353,2.683    c-0.058,0-0.116-0.005-0.174-0.014c-1.359-0.201-2.809-0.303-4.309-0.303c-0.654,0-1.298-0.529-1.298-1.183S157.986,0,158.64,0    h0.229c1.616,0,3.183,0.111,4.656,0.331c0.647,0.095,1.093,0.696,0.997,1.343C164.434,2.26,163.929,2.683,163.353,2.683z"/>
	</g>
	<g>
		<path style="fill:#241726;" d="M357.2,200.352h-0.035c-4.512-0.018-8.166-3.705-8.147-8.219c0.018-4.493,3.689-8.147,8.182-8.147    c4.437-0.075,8.284,3.798,8.184,8.217C365.363,196.696,361.691,200.352,357.2,200.352z M357.225,186.353    c-3.22,0-5.827,2.598-5.841,5.79c-0.014,3.208,2.584,5.829,5.79,5.843l0.025,1.183v-1.183c3.192,0,5.801-2.598,5.818-5.792    c0.007-1.553-0.592-3.016-1.687-4.119C360.237,186.97,358.778,186.36,357.225,186.353z"/>
	</g>
</g>















</svg>
