<svg viewBox="0 0 512 512" fill="none" xmlns="http://www.w3.org/2000/svg">
<g clip-path="url(#clip0_7_147)">
<g clip-path="url(#clip1_7_147)">
<path d="M431.445 89.313V15C431.445 9.38797 428.313 4.24597 423.326 1.67097C418.341 -0.903027 412.333 -0.479028 407.759 2.77097L339.733 51.094C312.867 42.208 284.74 37.708 256 37.708C226.835 37.708 198.316 42.338 171.101 51.482L104.388 2.87597C99.827 -0.447027 93.785 -0.928027 88.754 1.62997C83.724 4.18897 80.555 9.35597 80.555 15V128.674C80.555 170.78 99.217 211.173 131.756 239.495L146.573 252.392H15C6.716 252.392 0 259.108 0 267.392C0 332.867 26.721 394.384 75.241 440.61C123.562 486.646 187.756 512 256 512C324.244 512 388.439 486.646 436.759 440.609C485.279 394.383 512 332.867 512 267.392C512 199.946 482.708 135.456 431.445 89.313ZM110.555 128.674V44.488L159.816 80.379C163.877 83.339 169.15 84.067 173.862 82.32C200.02 72.624 227.655 67.708 256 67.708C283.918 67.708 311.162 72.48 336.977 81.893C341.612 83.583 346.781 82.886 350.802 80.029L401.446 44.054V128.678C401.446 162.1 386.542 194.243 360.555 216.865L271 294.824V289.624C271 281.34 264.284 274.624 256 274.624C247.716 274.624 241 281.34 241 289.624V294.81L151.452 216.866C125.461 194.243 110.555 162.099 110.555 128.674ZM84.62 282.392H85.25C80.847 306.209 64.273 326.383 41.654 335.432C35.706 318.578 31.89 300.804 30.545 282.392H84.62ZM256 482C167.496 482 90.725 433.434 53.654 362.899C87.029 349.164 110.967 318.311 115.579 282.391H181.039L246.161 339.075C248.984 341.532 252.496 342.76 256.009 342.76C259.522 342.76 263.035 341.531 265.858 339.074L380.252 239.493C411.9 211.942 430.413 172.971 431.398 132.113C463.866 170.112 482 217.871 482 267.392C482 385.727 380.617 482 256 482Z" fill="black" />
<path d="M296.29 187.64C297.566 193.789 302.566 198.607 308.795 199.549C314.985 200.486 321.281 197.296 324.22 191.78C327.173 186.239 326.318 179.307 322.116 174.639C317.934 169.994 311.022 168.462 305.26 170.86C298.684 173.597 294.98 180.679 296.29 187.64Z" fill="black" />
<path d="M186.29 187.64C187.566 193.789 192.566 198.607 198.795 199.549C204.984 200.486 211.281 197.295 214.22 191.78C217.174 186.237 216.32 179.308 212.116 174.639C207.935 169.994 201.02 168.461 195.26 170.86C188.685 173.599 184.98 180.677 186.29 187.64Z" fill="black" />
</g>
</g>
<defs>
<clipPath id="clip0_7_147">
<rect width="512" height="512" fill="black" />
</clipPath>
<clipPath id="clip1_7_147">
<rect width="512" height="512" fill="black" />
</clipPath>
</defs>
</svg>
